<svg width="79" height="79" viewBox="0 0 79 79" fill="none" xmlns="http://www.w3.org/2000/svg">
<g clip-path="url(#clip0)">
<path d="M62.7393 34.4249C62.5331 34.4249 62.3239 34.3834 62.1228 34.2957L42.493 25.7292C41.712 25.3883 41.3553 24.4789 41.6961 23.6979C42.0369 22.9166 42.9464 22.5598 43.7274 22.9008L63.3572 31.4673C64.1383 31.8082 64.495 32.7176 64.1542 33.4986C63.9011 34.0788 63.3342 34.4249 62.7393 34.4249Z" fill="#315BA9"/>
<path d="M16.2614 34.4249C15.6664 34.4249 15.0995 34.0788 14.8465 33.4987C14.5056 32.7176 14.8625 31.8082 15.6436 31.4673L35.7056 22.7122C36.4863 22.3711 37.3959 22.7281 37.7369 23.5092C38.0777 24.2902 37.7208 25.1996 36.9398 25.5405L16.8778 34.2956C16.6769 34.3834 16.4675 34.4249 16.2614 34.4249Z" fill="#315BA9"/>
<path d="M32.6755 40.045L39.1055 42.851H39.8952L46.3253 40.045V22.195H54.4093L39.5004 0L24.5913 22.195H32.6755V40.045Z" fill="#85ACF4"/>
<path d="M70.0999 42.5272L64.0757 32.109C63.6826 31.4295 62.8427 31.153 62.1226 31.4673L39.5003 41.3399L16.8777 31.4673C16.1578 31.1532 15.3176 31.4295 14.9248 32.109L8.91537 42.5017C8.79563 42.7088 8.71417 42.9387 8.69704 43.1774C8.64967 43.8365 9.01026 44.4222 9.56804 44.6904L14.7175 47.1653V66.3592C14.7175 66.9538 15.059 67.4953 15.5955 67.7516L38.8352 78.8522C38.8352 78.8522 38.8352 78.8522 38.8354 78.8524C39.2531 79.0478 39.7366 79.0497 40.1554 78.8568C40.1594 78.855 40.1617 78.8539 40.1623 78.8536C40.1633 78.8531 63.405 67.7516 63.405 67.7516C63.9415 67.4953 64.2829 66.9538 64.2829 66.3592V47.1653L69.4095 44.7015C69.6249 44.598 69.8213 44.4537 69.9692 44.2659C70.3775 43.748 70.4093 43.0623 70.0999 42.5272ZM16.9064 34.847L37.3177 43.7546L32.5108 52.2928L12.4057 42.6302L16.9064 34.847ZM17.8036 48.6484L32.4776 55.7007C32.6927 55.8041 32.9203 55.8532 33.1449 55.8532C33.6859 55.8532 34.2085 55.5677 34.4905 55.0669L37.9573 48.9093V75.0127L17.8036 65.3862V48.6484ZM61.1969 65.3862L41.0432 75.0127V48.9093L44.51 55.0669C44.7919 55.5677 45.3145 55.8532 45.8556 55.8532C46.0801 55.8532 46.3078 55.8041 46.5229 55.7007L61.1969 48.6484V65.3862ZM46.4896 52.2928L41.6826 43.7546L62.0941 34.847L66.5948 42.6304L46.4896 52.2928Z" fill="#315BA9"/>
</g>
<defs>
<clipPath id="clip0">
<rect width="79" height="79" fill="white"/>
</clipPath>
</defs>
</svg>
