<svg width="159" height="53" viewBox="0 0 159 53" fill="none" xmlns="http://www.w3.org/2000/svg">
<g clip-path="url(#clip0)">
<path fill-rule="evenodd" clip-rule="evenodd" d="M151.054 52.558H7.5611C5.55642 52.5583 3.63339 51.7637 2.21362 50.3484C0.793853 48.9331 -0.00685105 47.0127 -0.0129395 45.008V7.54901C-0.0073787 5.54418 0.793128 3.62339 2.21301 2.20801C3.6329 0.792624 5.55626 -0.00183912 7.5611 -0.00103699H151.054C153.059 -0.00183847 154.982 0.792656 156.402 2.20807C157.821 3.62348 158.622 5.54427 158.627 7.54901V45.008C158.621 47.0126 157.821 48.9331 156.401 50.3484C154.982 51.7637 153.059 52.5583 151.054 52.558ZM7.5611 1.22601C5.88205 1.22521 4.27123 1.89048 3.08209 3.07587C1.89295 4.26126 1.22258 5.86997 1.21808 7.54901V45.008C1.2239 46.6864 1.8948 48.294 3.08374 49.4786C4.27268 50.6633 5.88272 51.3283 7.5611 51.328H151.054C152.732 51.3283 154.342 50.6632 155.531 49.4785C156.72 48.2939 157.391 46.6863 157.396 45.008V7.54901C157.392 5.87006 156.722 4.26135 155.533 3.07593C154.344 1.89051 152.733 1.22521 151.054 1.22601H7.5611ZM27.7881 9.39099H14.967C14.6022 9.39034 14.2409 9.46152 13.9036 9.60053C13.5663 9.73953 13.2597 9.94361 13.0013 10.2011C12.7429 10.4586 12.5377 10.7645 12.3975 11.1013C12.2572 11.438 12.1847 11.7992 12.1841 12.164V40.478C12.184 40.8433 12.2558 41.2052 12.3957 41.5427C12.5355 41.8803 12.7406 42.1869 12.9991 42.4451C13.2576 42.7033 13.5644 42.908 13.9021 43.0475C14.2398 43.187 14.6017 43.2585 14.967 43.258H27.7881C28.1535 43.2587 28.5155 43.1872 28.8533 43.0478C29.1911 42.9084 29.4981 42.7037 29.7567 42.4454C30.0153 42.1872 30.2204 41.8805 30.3604 41.5429C30.5003 41.2053 30.5722 40.8434 30.5721 40.478V12.164C30.5718 11.7989 30.4995 11.4373 30.3594 11.1001C30.2193 10.7629 30.0141 10.4566 29.7556 10.1988C29.497 9.94096 29.1901 9.73666 28.8525 9.59754C28.5149 9.45841 28.1532 9.38721 27.7881 9.388V9.39099ZM21.3781 41.218C21.0137 41.2164 20.658 41.107 20.3558 40.9035C20.0535 40.7 19.8183 40.4116 19.6797 40.0746C19.5411 39.7377 19.5055 39.3672 19.5771 39.01C19.6488 38.6528 19.8247 38.3247 20.0825 38.0673C20.3404 37.8099 20.6687 37.6346 21.026 37.5635C21.3833 37.4924 21.7538 37.5287 22.0905 37.6678C22.4273 37.8069 22.7153 38.0426 22.9183 38.3452C23.1213 38.6477 23.2301 39.0036 23.2311 39.368C23.2316 39.6113 23.184 39.8524 23.0911 40.0773C22.9981 40.3022 22.8615 40.5065 22.6893 40.6784C22.5171 40.8503 22.3126 40.9865 22.0876 41.0791C21.8625 41.1717 21.6214 41.2189 21.3781 41.218ZM28.386 36.628H14.3691V15.737H28.386V36.628ZM41.0731 14.438L40.2941 16.791H39.2941L41.8431 9.30896H43.0131L45.5731 16.791H44.5381L43.738 14.438H41.0771H41.0731ZM43.5311 13.688L42.7851 11.534C42.6291 11.045 42.5171 10.602 42.4061 10.169H42.373C42.273 10.602 42.1501 11.069 42.0051 11.523L41.2711 13.688H43.5311ZM46.571 11.423L47.6281 14.431C47.8071 14.931 47.952 15.375 48.063 15.818H48.097C48.219 15.375 48.374 14.93 48.553 14.431L49.6 11.423H50.631L48.511 16.788H47.5751L45.5311 11.419H46.5771L46.571 11.423ZM55.1331 15.508C55.1283 15.9383 55.1548 16.3684 55.2121 16.795H54.3311L54.2411 16.118H54.2081C54.0177 16.3738 53.7686 16.58 53.4818 16.7192C53.1949 16.8585 52.8788 16.9266 52.5601 16.918C52.3486 16.9339 52.1361 16.9058 51.936 16.8353C51.736 16.7649 51.5528 16.6536 51.3979 16.5087C51.2431 16.3637 51.1201 16.1882 51.0366 15.9932C50.9532 15.7983 50.9111 15.5881 50.9131 15.376C50.9131 14.076 52.071 13.366 54.152 13.376V13.265C54.1751 13.0981 54.1594 12.9281 54.1063 12.7682C54.0532 12.6083 53.9641 12.4627 53.8458 12.3427C53.7275 12.2226 53.5833 12.1314 53.4242 12.076C53.2651 12.0206 53.0953 12.0024 52.928 12.023C52.428 12.0176 51.9371 12.1564 51.514 12.423L51.29 11.767C51.832 11.456 52.4473 11.2955 53.0721 11.302C53.3615 11.2758 53.6531 11.316 53.9246 11.4194C54.1962 11.5229 54.4405 11.6869 54.6392 11.899C54.8378 12.1112 54.9855 12.3658 55.0709 12.6436C55.1563 12.9213 55.1772 13.2149 55.1321 13.502V15.511L55.1331 15.508ZM54.175 14.053C53.106 14.031 51.894 14.22 51.894 15.264C51.8827 15.3875 51.8984 15.512 51.9399 15.6288C51.9815 15.7457 52.048 15.8521 52.1347 15.9407C52.2214 16.0294 52.3264 16.0981 52.4423 16.1422C52.5582 16.1863 52.6824 16.2046 52.8061 16.196C53.0937 16.2053 53.3769 16.1233 53.615 15.9615C53.8531 15.7998 54.0337 15.5668 54.131 15.296C54.1622 15.1953 54.1771 15.0903 54.175 14.985V14.052V14.053ZM57.1141 10.435C57.0317 10.4336 56.9505 10.4159 56.8749 10.3831C56.7994 10.3502 56.7312 10.3028 56.674 10.2436C56.5584 10.1239 56.4951 9.96329 56.498 9.797C56.501 9.63071 56.5699 9.4724 56.6895 9.35687C56.8092 9.24135 56.9698 9.17805 57.136 9.18097C57.2186 9.17761 57.301 9.1914 57.3781 9.22138C57.4551 9.25136 57.5251 9.29692 57.5837 9.35523C57.6423 9.41353 57.6882 9.4833 57.7186 9.56018C57.7489 9.63706 57.763 9.7194 57.7601 9.802C57.763 9.88601 57.7486 9.96972 57.7178 10.0479C57.6869 10.1261 57.6404 10.1971 57.5809 10.2565C57.5214 10.3159 57.4503 10.3624 57.3721 10.3931C57.2938 10.4238 57.21 10.4381 57.126 10.435H57.1141ZM56.6471 16.795V11.423H57.6271V16.788H56.6471V16.795ZM59.196 8.91498H60.1761V16.795H59.196V8.91498ZM65.5431 15.508C65.5383 15.9383 65.564 16.3683 65.6201 16.795H64.7401L64.6511 16.118H64.6211C64.4307 16.3737 64.1815 16.5799 63.8947 16.7191C63.6079 16.8584 63.2918 16.9265 62.9731 16.918C62.7615 16.9339 62.549 16.9058 62.3489 16.8353C62.1488 16.7649 61.9655 16.6537 61.8106 16.5087C61.6557 16.3638 61.5326 16.1883 61.449 15.9933C61.3654 15.7983 61.3232 15.5881 61.3251 15.376C61.3251 14.076 62.483 13.366 64.566 13.376V13.265C64.5891 13.098 64.5735 12.9279 64.5203 12.7679C64.4672 12.6079 64.3779 12.4622 64.2595 12.3422C64.1411 12.2221 63.9968 12.131 63.8375 12.0756C63.6783 12.0203 63.5084 12.0023 63.3411 12.023C62.8413 12.0172 62.3506 12.1561 61.928 12.423L61.704 11.767C62.2459 11.4557 62.8612 11.2951 63.4861 11.302C63.7755 11.276 64.0669 11.3163 64.3384 11.4199C64.6098 11.5234 64.8542 11.6874 65.0527 11.8995C65.2513 12.1116 65.399 12.3661 65.4844 12.6438C65.5699 12.9215 65.591 13.215 65.5461 13.502V15.511L65.5431 15.508ZM64.5851 14.053C63.5161 14.031 62.3021 14.22 62.3021 15.264C62.2909 15.3875 62.3067 15.5121 62.3484 15.6289C62.3901 15.7458 62.4566 15.8522 62.5434 15.9408C62.6302 16.0294 62.7352 16.0981 62.8512 16.1422C62.9672 16.1862 63.0913 16.2046 63.2151 16.196C63.5028 16.2055 63.786 16.1235 64.0241 15.9617C64.2622 15.8 64.4428 15.5669 64.54 15.296C64.5715 15.1954 64.5868 15.0904 64.5851 14.985V14.052V14.053ZM67.0551 8.91498H68.0361V12.277H68.058C68.2453 11.9615 68.5157 11.7035 68.8397 11.5314C69.1637 11.3592 69.5288 11.2795 69.8951 11.301C71.2321 11.301 72.1671 12.411 72.1671 14.031C72.1671 15.963 70.9421 16.917 69.7401 16.917C69.3752 16.936 69.0125 16.8513 68.6939 16.6725C68.3753 16.4937 68.1139 16.2283 67.9401 15.907H67.9171L67.8611 16.795H67.0161C67.05 16.428 67.0591 15.885 67.0591 15.408V8.91498H67.0551ZM68.0361 14.642C68.0356 14.7611 68.0469 14.8801 68.0701 14.997C68.1538 15.3233 68.3434 15.6125 68.6093 15.8194C68.8752 16.0263 69.2022 16.1391 69.5391 16.14C70.5751 16.14 71.1761 15.308 71.1761 14.075C71.2126 13.8366 71.1994 13.5933 71.1373 13.3603C71.0752 13.1273 70.9656 12.9096 70.8153 12.721C70.665 12.5324 70.4774 12.377 70.2641 12.2644C70.0508 12.1519 69.8166 12.0847 69.576 12.067C69.2308 12.0737 68.8977 12.1953 68.6295 12.4127C68.3612 12.63 68.1732 12.9306 68.0951 13.267C68.0576 13.4007 68.0388 13.5391 68.0391 13.678V14.644L68.0361 14.642ZM73.3361 8.91498H74.3151V16.795H73.3361V8.91498ZM76.4421 14.275C76.4196 14.5231 76.4514 14.7732 76.5353 15.0078C76.6193 15.2423 76.7534 15.4558 76.9282 15.6333C77.1031 15.8108 77.3145 15.9481 77.5478 16.0356C77.7811 16.1231 78.0306 16.1588 78.2791 16.14C78.7894 16.1545 79.2972 16.0639 79.7711 15.874L79.9491 16.561C79.3801 16.8015 78.7666 16.9191 78.149 16.906C77.7904 16.9274 77.4314 16.8715 77.0963 16.7421C76.7611 16.6128 76.4576 16.413 76.2063 16.1563C75.955 15.8996 75.7617 15.5919 75.6395 15.254C75.5173 14.9162 75.4691 14.5561 75.498 14.198C75.4585 13.8372 75.4943 13.4721 75.603 13.1259C75.7118 12.7796 75.8912 12.4597 76.1299 12.1863C76.3686 11.9129 76.6614 11.692 76.9899 11.5375C77.3183 11.3831 77.6753 11.2985 78.0381 11.289C78.3548 11.2947 78.6668 11.3666 78.954 11.5001C79.2413 11.6335 79.4974 11.8257 79.706 12.064C79.9146 12.3024 80.0711 12.5817 80.1653 12.8842C80.2595 13.1866 80.2894 13.5053 80.2531 13.82C80.2561 13.9764 80.2448 14.1327 80.2191 14.287L76.4421 14.275ZM79.303 13.575C79.3295 13.3804 79.3148 13.1824 79.2597 12.9939C79.2046 12.8054 79.1105 12.6305 78.9835 12.4808C78.8564 12.331 78.6993 12.2096 78.5223 12.1246C78.3453 12.0395 78.1524 11.9926 77.9561 11.987C77.5524 12.0153 77.1742 12.1943 76.8964 12.4884C76.6185 12.7826 76.4613 13.1704 76.4561 13.575H79.3061H79.303ZM85.9031 16.916C85.5473 16.9197 85.1946 16.8494 84.8674 16.7094C84.5403 16.5693 84.2459 16.3628 84.0029 16.1028C83.76 15.8428 83.5738 15.5351 83.4562 15.1992C83.3387 14.8634 83.2923 14.5067 83.3201 14.152C83.2894 13.7849 83.336 13.4156 83.457 13.0677C83.578 12.7198 83.7706 12.4012 84.0225 12.1324C84.2743 11.8636 84.5797 11.6506 84.9189 11.5072C85.2582 11.3638 85.6238 11.2933 85.9921 11.3C86.3486 11.2918 86.7029 11.3586 87.0319 11.4962C87.3609 11.6337 87.6573 11.8389 87.9019 12.0984C88.1465 12.3579 88.3338 12.6659 88.4517 13.0024C88.5695 13.339 88.6153 13.6966 88.5861 14.052C88.6181 14.4199 88.5724 14.7904 88.452 15.1395C88.3317 15.4886 88.1393 15.8086 87.8874 16.0786C87.6355 16.3486 87.3296 16.5627 86.9897 16.707C86.6497 16.8512 86.2833 16.9224 85.9141 16.916H85.9031ZM85.9371 16.184C86.1841 16.1576 86.4232 16.0818 86.6403 15.961C86.8573 15.8402 87.0479 15.677 87.2006 15.481C87.3532 15.2851 87.4649 15.0604 87.5289 14.8204C87.5929 14.5804 87.6079 14.3299 87.5731 14.084C87.4947 13.7806 87.3331 13.5052 87.1064 13.2888C86.8797 13.0725 86.5971 12.9238 86.2903 12.8597C85.9836 12.7955 85.6651 12.8185 85.3707 12.9258C85.0764 13.0332 84.8179 13.2208 84.6245 13.4673C84.4311 13.7139 84.3106 14.0096 84.2764 14.3211C84.2423 14.6326 84.2959 14.9474 84.4313 15.23C84.5667 15.5126 84.7785 15.7516 85.0426 15.9202C85.3067 16.0888 85.6128 16.1802 85.9261 16.184H85.9371ZM89.7671 12.876C89.7671 12.309 89.7541 11.866 89.7211 11.422H90.5901L90.6451 12.298H90.6681C90.8477 11.9866 91.1079 11.7294 91.4213 11.5535C91.7347 11.3775 92.0898 11.2892 92.4491 11.298C93.1951 11.298 94.355 11.742 94.355 13.584V16.788H93.373V13.688C93.373 12.824 93.051 12.088 92.126 12.088C91.8299 12.096 91.5437 12.1969 91.3079 12.3763C91.0722 12.5557 90.8987 12.8047 90.8121 13.088C90.7663 13.2353 90.744 13.3888 90.7461 13.543V16.788H89.7711V12.87L89.7671 12.876ZM99.3741 10.135V11.422H100.774V12.165H99.3741V15.065C99.3741 15.731 99.5631 16.109 100.108 16.109C100.3 16.1169 100.492 16.0942 100.677 16.042L100.721 16.786C100.441 16.8775 100.148 16.9224 99.8531 16.919C99.6578 16.9281 99.4626 16.8963 99.2803 16.8257C99.0979 16.7551 98.9323 16.6472 98.7941 16.509C98.5035 16.0993 98.3694 15.5991 98.4161 15.099V12.168H97.5821V11.425H98.4161V10.437L99.3741 10.135ZM101.823 8.914H102.803V12.265H102.831C102.994 11.9733 103.237 11.7345 103.531 11.577C103.832 11.3942 104.179 11.2984 104.531 11.3C105.254 11.3 106.411 11.744 106.411 13.6V16.8H105.431V13.715C105.431 12.838 105.107 12.115 104.183 12.115C103.89 12.1223 103.606 12.2202 103.371 12.3953C103.136 12.5705 102.961 12.8143 102.87 13.093C102.816 13.2422 102.794 13.4007 102.803 13.559V16.788H101.831V8.90796L101.823 8.914ZM108.503 14.274C108.481 14.5221 108.512 14.7722 108.596 15.0068C108.68 15.2414 108.814 15.4548 108.989 15.6323C109.164 15.8098 109.375 15.9471 109.609 16.0346C109.842 16.1221 110.092 16.1577 110.34 16.139C110.851 16.1531 111.359 16.0626 111.833 15.873L112.01 16.56C111.441 16.8002 110.828 16.9178 110.21 16.905C109.852 16.9262 109.493 16.8702 109.158 16.7408C108.823 16.6114 108.519 16.4116 108.268 16.1549C108.017 15.8982 107.824 15.5906 107.701 15.2528C107.579 14.915 107.531 14.555 107.56 14.197C107.521 13.8363 107.556 13.4713 107.665 13.1251C107.774 12.7789 107.953 12.459 108.192 12.1856C108.43 11.9122 108.723 11.6913 109.051 11.5368C109.38 11.3823 109.736 11.2976 110.099 11.288C110.416 11.2934 110.728 11.3651 111.016 11.4985C111.303 11.6318 111.559 11.8239 111.768 12.0623C111.977 12.3007 112.133 12.5802 112.228 12.8828C112.322 13.1853 112.352 13.5042 112.315 13.819C112.318 13.9753 112.307 14.1317 112.282 14.286L108.503 14.274ZM111.364 13.574C111.391 13.3794 111.376 13.1814 111.321 12.9929C111.266 12.8044 111.172 12.6296 111.044 12.4798C110.917 12.33 110.76 12.2087 110.583 12.1236C110.406 12.0385 110.213 11.9916 110.017 11.986C109.613 12.0138 109.235 12.1927 108.957 12.4869C108.679 12.7812 108.522 13.1692 108.517 13.574H111.367H111.364ZM116.241 10.433C116.075 10.4301 115.916 10.3612 115.801 10.2416C115.685 10.1219 115.622 9.96127 115.625 9.79498C115.628 9.62869 115.697 9.47038 115.816 9.35486C115.936 9.23934 116.097 9.1761 116.263 9.17902C116.346 9.1758 116.428 9.18962 116.505 9.21967C116.582 9.24971 116.652 9.29529 116.71 9.35358C116.769 9.41187 116.814 9.4816 116.845 9.55841C116.875 9.63522 116.889 9.71747 116.886 9.79999C116.889 9.88413 116.874 9.96794 116.843 10.0462C116.812 10.1245 116.765 10.1955 116.706 10.2549C116.646 10.3143 116.575 10.3608 116.497 10.3914C116.418 10.4221 116.334 10.4362 116.25 10.433H116.241ZM115.772 16.793V11.421H116.752V16.788H115.772V16.793ZM118.355 9.41101C118.969 9.30245 119.592 9.25054 120.215 9.25598C120.968 9.19921 121.715 9.42054 122.315 9.87799C122.534 10.0743 122.707 10.3161 122.823 10.5864C122.938 10.8568 122.993 11.1491 122.984 11.443C123 11.7359 122.955 12.0288 122.853 12.3039C122.752 12.579 122.595 12.8305 122.393 13.043C122.086 13.3269 121.724 13.546 121.33 13.6871C120.936 13.8281 120.518 13.8883 120.1 13.864C119.839 13.8721 119.577 13.8503 119.321 13.799V16.799H118.352V9.41699L118.355 9.41101ZM119.324 13.011C119.587 13.0691 119.855 13.0953 120.124 13.089C120.355 13.1303 120.593 13.1201 120.82 13.0591C121.047 12.9982 121.258 12.888 121.437 12.7365C121.617 12.5849 121.761 12.3955 121.859 12.182C121.957 11.9685 122.007 11.736 122.005 11.501C122.007 11.2805 121.96 11.0623 121.868 10.8622C121.775 10.6621 121.639 10.485 121.47 10.3439C121.3 10.2027 121.102 10.101 120.888 10.046C120.675 9.99104 120.452 9.98421 120.235 10.026C119.929 10.0228 119.623 10.0486 119.322 10.103V13.011H119.324ZM124.134 8.91101H125.114V12.262H125.136C125.299 11.9704 125.542 11.7317 125.836 11.574C126.138 11.3915 126.484 11.2956 126.836 11.297C127.559 11.297 128.717 11.741 128.717 13.597V16.797H127.738V13.712C127.738 12.835 127.415 12.112 126.49 12.112C126.197 12.1196 125.913 12.2176 125.678 12.3927C125.443 12.5678 125.268 12.8114 125.177 13.09C125.123 13.2392 125.101 13.3977 125.11 13.556V16.788H124.13V8.90796L124.134 8.91101ZM132.451 16.911C132.095 16.9149 131.742 16.8446 131.415 16.7047C131.088 16.5647 130.793 16.3581 130.55 16.0981C130.307 15.8381 130.121 15.5304 130.003 15.1945C129.886 14.8585 129.839 14.5018 129.867 14.147C129.836 13.7798 129.883 13.4104 130.004 13.0624C130.125 12.7145 130.318 12.3958 130.57 12.127C130.822 11.8582 131.127 11.6452 131.467 11.5019C131.806 11.3586 132.172 11.2881 132.54 11.295C132.897 11.2868 133.251 11.3536 133.58 11.4912C133.909 11.6287 134.205 11.8339 134.45 12.0934C134.694 12.3529 134.881 12.6609 134.999 12.9975C135.117 13.3341 135.162 13.6916 135.133 14.047C135.165 14.4148 135.12 14.7853 134.999 15.1345C134.879 15.4836 134.687 15.8035 134.435 16.0735C134.183 16.3436 133.878 16.5577 133.538 16.702C133.198 16.8462 132.831 16.9175 132.462 16.911H132.451ZM132.485 16.179C132.732 16.1525 132.971 16.0765 133.188 15.9557C133.405 15.8349 133.596 15.6717 133.748 15.4758C133.901 15.2798 134.012 15.0552 134.077 14.8152C134.141 14.5753 134.156 14.3249 134.121 14.079C134.043 13.7757 133.881 13.5003 133.655 13.284C133.428 13.0677 133.145 12.919 132.839 12.8548C132.532 12.7906 132.214 12.8134 131.919 12.9206C131.625 13.0278 131.367 13.2152 131.173 13.4616C130.98 13.708 130.859 14.0035 130.825 14.3149C130.79 14.6263 130.844 14.9411 130.979 15.2237C131.114 15.5063 131.325 15.7455 131.589 15.9143C131.853 16.0831 132.159 16.1748 132.472 16.179H132.485ZM136.314 12.871C136.314 12.304 136.302 11.861 136.269 11.417H137.138L137.193 12.293H137.216C137.396 11.9816 137.656 11.7244 137.969 11.5485C138.283 11.3725 138.638 11.2842 138.997 11.293C139.743 11.293 140.897 11.737 140.897 13.579V16.788H139.931V13.688C139.931 12.824 139.607 12.088 138.683 12.088C138.387 12.0959 138.101 12.1967 137.865 12.3762C137.63 12.5556 137.456 12.8047 137.37 13.088C137.323 13.235 137.299 13.3886 137.301 13.543V16.788H136.323V12.87L136.314 12.871ZM142.994 14.271C142.972 14.5191 143.003 14.7692 143.087 15.0038C143.171 15.2384 143.305 15.4518 143.48 15.6293C143.655 15.8068 143.867 15.9441 144.1 16.0316C144.333 16.1191 144.583 16.1547 144.831 16.136C145.341 16.1504 145.849 16.0599 146.322 15.87L146.501 16.557C145.932 16.7973 145.319 16.9148 144.701 16.902C144.343 16.9232 143.984 16.8672 143.649 16.7378C143.314 16.6084 143.01 16.4086 142.759 16.1519C142.508 15.8952 142.315 15.5876 142.192 15.2498C142.07 14.9121 142.022 14.552 142.051 14.194C142.012 13.8333 142.047 13.4685 142.156 13.1223C142.264 12.7762 142.444 12.4564 142.682 12.183C142.921 11.9096 143.213 11.6887 143.542 11.5341C143.87 11.3796 144.226 11.2947 144.589 11.285C144.906 11.2903 145.218 11.3619 145.506 11.4952C145.793 11.6285 146.05 11.8205 146.259 12.059C146.468 12.2974 146.624 12.5769 146.718 12.8795C146.813 13.1821 146.843 13.5011 146.806 13.816C146.81 13.9724 146.798 14.1287 146.772 14.283L142.994 14.271ZM145.855 13.571C145.882 13.3764 145.867 13.1784 145.812 12.9899C145.757 12.8014 145.663 12.6266 145.535 12.4768C145.408 12.327 145.251 12.2057 145.074 12.1206C144.897 12.0355 144.704 11.9886 144.508 11.983C144.104 12.0108 143.726 12.1897 143.448 12.4839C143.17 12.7782 143.013 13.1663 143.008 13.571H145.858H145.855ZM45.6861 21.858L39.0861 41.228H42.1091L44.0801 35.278H50.472L52.498 41.228H55.605L48.975 21.858H45.6871H45.6861ZM47.2531 25.044C47.4751 25.908 47.7161 26.808 48.0251 27.778L49.8041 32.908H44.7411L46.4951 27.748C46.7631 26.908 47.0161 25.998 47.2531 25.044ZM64.1471 26.878C63.2439 26.8385 62.3449 27.0222 61.5297 27.4129C60.7144 27.8036 60.0081 28.3892 59.4731 29.118L59.355 27.188H56.6661L56.6821 27.438C56.7611 28.638 56.795 29.958 56.795 31.858V46.788H59.7311V39.818C60.2347 40.3811 60.8556 40.827 61.5502 41.1242C62.2447 41.4214 62.996 41.5626 63.751 41.538C64.5836 41.5457 65.4088 41.3819 66.1753 41.0568C66.9418 40.7316 67.633 40.252 68.2061 39.648C69.5675 38.0938 70.2727 36.0718 70.1731 34.008C70.2377 32.1454 69.6316 30.3215 68.4651 28.868C67.9352 28.2401 67.2736 27.7365 66.5275 27.3926C65.7813 27.0487 64.9687 26.873 64.1471 26.878ZM63.4141 29.308C66.0351 29.308 67.2081 31.728 67.2081 34.128C67.2081 37.218 65.708 39.138 63.308 39.138C62.509 39.1399 61.7326 38.8725 61.1041 38.379C60.4757 37.8855 60.0317 37.1947 59.8441 36.418C59.7681 36.1072 59.7329 35.7879 59.7391 35.468V33.118C59.7496 32.8724 59.781 32.6282 59.8331 32.388C59.8481 32.308 59.864 32.228 59.876 32.158C60.0678 31.3586 60.519 30.6454 61.1591 30.1298C61.7993 29.6141 62.5922 29.3251 63.4141 29.308ZM79.287 26.878C78.3837 26.8383 77.4846 27.0219 76.6691 27.4127C75.8537 27.8034 75.1471 28.3891 74.6121 29.118L74.4951 27.188H71.8061L71.8221 27.438C71.9011 28.638 71.9351 29.958 71.9351 31.858V46.788H74.8751V39.818C75.3782 40.3812 75.9987 40.8271 76.693 41.1243C77.3873 41.4215 78.1383 41.5627 78.8931 41.538C79.7259 41.5457 80.5514 41.382 81.3182 41.0568C82.085 40.7317 82.7766 40.2521 83.35 39.648C84.7108 38.0934 85.4155 36.0716 85.316 34.008C85.3803 32.1453 84.7739 30.3214 83.6071 28.868C83.0772 28.2395 82.4154 27.7355 81.6688 27.3915C80.9222 27.0476 80.109 26.8723 79.287 26.878ZM78.5551 29.308C81.1751 29.308 82.3481 31.728 82.3481 34.128C82.3481 37.218 80.8481 39.138 78.4481 39.138C77.649 39.1397 76.8727 38.8723 76.2443 38.3788C75.6158 37.8854 75.1719 37.1946 74.9841 36.418C74.9099 36.1069 74.8763 35.7877 74.8841 35.468V33.118C74.8941 32.8724 74.9256 32.6281 74.9781 32.388C74.9921 32.308 75.0071 32.228 75.0211 32.158C75.2126 31.3593 75.6632 30.6466 76.3026 30.131C76.9419 29.6154 77.7339 29.326 78.5551 29.308ZM98.2551 30.068C95.5111 29.008 94.631 28.178 94.631 26.638C94.631 25.338 95.6641 24.032 97.9731 24.032C99.1806 24.0032 100.373 24.3017 101.425 24.896L101.674 25.049L102.504 22.603L102.339 22.503C101.02 21.8159 99.5442 21.4857 98.058 21.545C94.308 21.545 91.6901 23.752 91.6901 26.914C91.6901 29.454 93.3301 31.234 96.8511 32.514C99.3451 33.444 100.274 34.394 100.274 36.034C100.274 37.874 98.842 39.024 96.537 39.024C95.0408 39.0241 93.574 38.6086 92.3 37.824L92.045 37.664L91.256 40.164L91.4001 40.264C92.9192 41.1086 94.631 41.5461 96.3691 41.534C101.422 41.534 103.214 38.464 103.214 35.834C103.213 33.128 101.776 31.448 98.2541 30.068H98.2551ZM108.507 23.851L105.623 24.751V27.188H103.511V29.528H105.622V36.708C105.5 38.0303 105.862 39.3519 106.64 40.428C107.01 40.8013 107.455 41.093 107.945 41.2842C108.434 41.4754 108.959 41.5618 109.484 41.538C110.256 41.548 111.024 41.4297 111.757 41.188L111.921 41.128L111.781 38.788L111.499 38.868C111.055 38.9952 110.593 39.0493 110.131 39.028C108.992 39.028 108.506 38.308 108.506 36.618V29.528H112.052V27.188H108.506V23.851H108.507ZM119.339 26.878C115.225 26.878 112.353 29.938 112.353 34.318C112.353 38.568 115.133 41.538 119.114 41.538H119.141C122.507 41.538 126.128 39.198 126.128 34.068C126.197 32.164 125.525 30.3074 124.254 28.888C123.62 28.2287 122.855 27.7093 122.009 27.3632C121.162 27.017 120.252 26.8517 119.338 26.878H119.339ZM119.254 29.198C121.9 29.198 123.103 31.768 123.103 34.158C123.103 37.088 121.46 39.228 119.203 39.228H119.175C116.945 39.228 115.326 37.128 115.326 34.238C115.32 31.728 116.536 29.198 119.253 29.198H119.254ZM135.133 27.018L134.957 26.968C134.718 26.9085 134.472 26.8782 134.225 26.878C133.453 26.8953 132.701 27.1246 132.051 27.5409C131.401 27.9572 130.878 28.5443 130.539 29.238L130.451 27.188H127.813L127.83 27.438C127.908 28.598 127.941 29.898 127.941 31.658L127.914 41.228H130.854V33.758C130.852 33.3798 130.88 33.0021 130.935 32.628C131.004 31.8434 131.356 31.1106 131.925 30.566C132.494 30.0215 133.241 29.7023 134.028 29.668C134.328 29.668 134.566 29.698 134.818 29.718L135.132 29.748V27.018H135.133ZM141.744 26.848C137.83 26.848 135.095 29.968 135.095 34.438C135.095 38.728 137.815 41.508 142.024 41.508C143.622 41.5455 145.209 41.2421 146.68 40.618L146.856 40.538L146.292 38.358L146.046 38.458C144.875 38.9235 143.622 39.1447 142.362 39.108C141.785 39.1534 141.206 39.0759 140.661 38.8805C140.117 38.6851 139.62 38.3762 139.204 37.9744C138.788 37.5725 138.463 37.0869 138.248 36.5497C138.034 36.0124 137.937 35.4358 137.962 34.858L147.452 34.888L147.49 34.708C147.559 34.3017 147.588 33.8899 147.579 33.478C147.575 30.428 146.048 26.848 141.743 26.848H141.744ZM141.544 29.078C141.942 29.0603 142.339 29.1249 142.71 29.2678C143.082 29.4106 143.42 29.6285 143.703 29.908C144.358 30.6628 144.717 31.6289 144.715 32.628H138.01C138.285 30.938 139.347 29.078 141.546 29.078H141.544Z" fill="white"/>
</g>
<defs>
<clipPath id="clip0">
<rect width="158.625" height="52.568" fill="white"/>
</clipPath>
</defs>
</svg>
