<svg width="79" height="79" viewBox="0 0 79 79" fill="none" xmlns="http://www.w3.org/2000/svg">
<g clip-path="url(#clip0)">
<path d="M49.407 73.0985H14.1196V20.527H22.3834V28.4739C22.3834 29.3261 23.0742 30.0169 23.9264 30.0169C24.7784 30.0169 25.4694 29.3261 25.4694 28.4739V20.527H46.6304V28.4739C46.6304 29.3261 47.3214 30.0169 48.1734 30.0169C49.0254 30.0169 49.7164 29.3261 49.7164 28.4739V20.527H57.7222V36.8753H60.8082V18.9841C60.8082 18.1319 60.1172 17.4411 59.2652 17.4411H49.7164V13.5977C49.7164 6.09997 43.5857 0 36.05 0C34.3228 0 32.6693 0.320475 31.1466 0.904797C29.6238 0.320475 27.9704 0 26.2432 0C18.7073 0 12.5766 6.09997 12.5766 13.5977V17.4409H3.02783C2.1758 17.4409 1.48486 18.1317 1.48486 18.9839V68.846C1.48486 72.8923 4.78203 76.1842 8.83479 76.1842H54.0643C52.5402 75.3617 50.9254 74.3405 49.407 73.0985ZM36.05 3.08594C41.8841 3.08594 46.6304 7.80156 46.6304 13.5977V17.4409H39.9096V13.5977C39.9096 9.39776 37.986 5.63662 34.9693 3.14025C35.3246 3.10445 35.6852 3.08594 36.05 3.08594ZM31.1466 4.28452C34.5186 6.04396 36.8238 9.55854 36.8238 13.5979V17.4411H25.4694V13.5977C25.4694 9.55838 27.7746 6.04396 31.1466 4.28452ZM15.6626 13.5977C15.6626 7.80156 20.4091 3.08594 26.2432 3.08594C26.6079 3.08594 26.9684 3.1043 27.3237 3.1404C24.3071 5.63662 22.3833 9.39791 22.3833 13.5979V17.4411H15.6624V13.5977H15.6626ZM11.0337 73.0985H8.83479C6.48362 73.0985 4.5708 71.1909 4.5708 68.8462V20.527H11.0337V73.0985Z" fill="#315BA9"/>
<path d="M72.6485 41.9831C67.984 41.9831 63.9607 39.263 62.0887 35.3322H56.6029C54.7309 39.2629 50.7076 41.9831 46.0431 41.9831C44.306 41.9831 42.658 41.6056 41.1763 40.9293V60.1471C41.1763 74.2034 59.3458 79 59.3458 79C59.3458 79 77.5153 74.2034 77.5153 60.1471V40.9293C76.0336 41.6056 74.3854 41.9831 72.6485 41.9831Z" fill="#85ACF4"/>
<path d="M58.7491 62.5905C58.3424 62.5905 57.9511 62.4297 57.6613 62.1416L54.3081 58.8074C53.7038 58.2064 53.701 57.2296 54.302 56.6254C54.9026 56.021 55.8796 56.0182 56.484 56.6192L58.6497 58.7726L64.2766 52.1017C64.8263 51.4502 65.7996 51.3679 66.4508 51.9171C67.1023 52.4666 67.185 53.4401 66.6354 54.0915L59.9287 62.0426C59.6507 62.3722 59.2476 62.5703 58.8168 62.5891C58.7942 62.59 58.7718 62.5905 58.7491 62.5905Z" fill="white"/>
</g>
<defs>
<clipPath id="clip0">
<rect width="79" height="79" fill="white"/>
</clipPath>
</defs>
</svg>
