<svg width="152" height="151" viewBox="0 0 152 151" fill="none" xmlns="http://www.w3.org/2000/svg">
<g opacity="0.3">
<path d="M0.824951 0.0151367H4.89495V4.08514H0.824951V0.0151367Z" fill="#C4C4C4"/>
<path d="M25.2449 0.0151367H29.3149V4.08514H25.2449V0.0151367Z" fill="#C4C4C4"/>
<path d="M49.6649 0.0151367H53.7349V4.08514H49.6649V0.0151367Z" fill="#C4C4C4"/>
<path d="M74.0849 0.0151367H78.1549V4.08514H74.0849V0.0151367Z" fill="#C4C4C4"/>
<path d="M98.5049 0.0151367H102.575V4.08514H98.5049V0.0151367Z" fill="#C4C4C4"/>
<path d="M122.925 0.0151367H126.995V4.08514H122.925V0.0151367Z" fill="#C4C4C4"/>
<path d="M147.345 0.0151367H151.415V4.08514H147.345V0.0151367Z" fill="#C4C4C4"/>
<path d="M0.824951 24.4351H4.89495V28.5051H0.824951V24.4351Z" fill="#C4C4C4"/>
<path d="M25.2449 24.4351H29.3149V28.5051H25.2449V24.4351Z" fill="#C4C4C4"/>
<path d="M49.6649 24.4351H53.7349V28.5051H49.6649V24.4351Z" fill="#C4C4C4"/>
<path d="M74.0849 24.4351H78.1549V28.5051H74.0849V24.4351Z" fill="#C4C4C4"/>
<path d="M98.5049 24.4351H102.575V28.5051H98.5049V24.4351Z" fill="#C4C4C4"/>
<path d="M122.925 24.4351H126.995V28.5051H122.925V24.4351Z" fill="#C4C4C4"/>
<path d="M147.345 24.4351H151.415V28.5051H147.345V24.4351Z" fill="#C4C4C4"/>
<path d="M0.824951 48.8551H4.89495V52.9251H0.824951V48.8551Z" fill="#C4C4C4"/>
<path d="M25.2449 48.8551H29.3149V52.9251H25.2449V48.8551Z" fill="#C4C4C4"/>
<path d="M49.6649 48.8551H53.7349V52.9251H49.6649V48.8551Z" fill="#C4C4C4"/>
<path d="M74.0849 48.8551H78.1549V52.9251H74.0849V48.8551Z" fill="#C4C4C4"/>
<path d="M98.5049 48.8551H102.575V52.9251H98.5049V48.8551Z" fill="#C4C4C4"/>
<path d="M122.925 48.8551H126.995V52.9251H122.925V48.8551Z" fill="#C4C4C4"/>
<path d="M147.345 48.8551H151.415V52.9251H147.345V48.8551Z" fill="#C4C4C4"/>
<path d="M0.824951 73.2751H4.89495V77.3451H0.824951V73.2751Z" fill="#C4C4C4"/>
<path d="M25.2449 73.2751H29.3149V77.3451H25.2449V73.2751Z" fill="#C4C4C4"/>
<path d="M49.6649 73.2751H53.7349V77.3451H49.6649V73.2751Z" fill="#C4C4C4"/>
<path d="M74.0849 73.2751H78.1549V77.3451H74.0849V73.2751Z" fill="#C4C4C4"/>
<path d="M98.5049 73.2751H102.575V77.3451H98.5049V73.2751Z" fill="#C4C4C4"/>
<path d="M122.925 73.2751H126.995V77.3451H122.925V73.2751Z" fill="#C4C4C4"/>
<path d="M147.345 73.2751H151.415V77.3451H147.345V73.2751Z" fill="#C4C4C4"/>
<path d="M0.824951 97.6951H4.89495V101.765H0.824951V97.6951Z" fill="#C4C4C4"/>
<path d="M25.2449 97.6951H29.3149V101.765H25.2449V97.6951Z" fill="#C4C4C4"/>
<path d="M49.6649 97.6951H53.7349V101.765H49.6649V97.6951Z" fill="#C4C4C4"/>
<path d="M74.0849 97.6951H78.1549V101.765H74.0849V97.6951Z" fill="#C4C4C4"/>
<path d="M98.5049 97.6951H102.575V101.765H98.5049V97.6951Z" fill="#C4C4C4"/>
<path d="M122.925 97.6951H126.995V101.765H122.925V97.6951Z" fill="#C4C4C4"/>
<path d="M147.345 97.6951H151.415V101.765H147.345V97.6951Z" fill="#C4C4C4"/>
<path d="M0.824951 122.115H4.89495V126.185H0.824951V122.115Z" fill="#C4C4C4"/>
<path d="M25.2449 122.115H29.3149V126.185H25.2449V122.115Z" fill="#C4C4C4"/>
<path d="M49.6649 122.115H53.7349V126.185H49.6649V122.115Z" fill="#C4C4C4"/>
<path d="M74.0849 122.115H78.1549V126.185H74.0849V122.115Z" fill="#C4C4C4"/>
<path d="M98.5049 122.115H102.575V126.185H98.5049V122.115Z" fill="#C4C4C4"/>
<path d="M122.925 122.115H126.995V126.185H122.925V122.115Z" fill="#C4C4C4"/>
<path d="M147.345 122.115H151.415V126.185H147.345V122.115Z" fill="#C4C4C4"/>
<path d="M0.824951 146.535H4.89495V150.605H0.824951V146.535Z" fill="#C4C4C4"/>
<path d="M25.2449 146.535H29.3149V150.605H25.2449V146.535Z" fill="#C4C4C4"/>
<path d="M49.6649 146.535H53.7349V150.605H49.6649V146.535Z" fill="#C4C4C4"/>
<path d="M74.0849 146.535H78.1549V150.605H74.0849V146.535Z" fill="#C4C4C4"/>
<path d="M98.5049 146.535H102.575V150.605H98.5049V146.535Z" fill="#C4C4C4"/>
<path d="M122.925 146.535H126.995V150.605H122.925V146.535Z" fill="#C4C4C4"/>
<path d="M147.345 146.535H151.415V150.605H147.345V146.535Z" fill="#C4C4C4"/>
</g>
</svg>
