<svg width="79" height="79" viewBox="0 0 79 79" fill="none" xmlns="http://www.w3.org/2000/svg">
<g clip-path="url(#clip0)">
<path d="M24.7438 74.5975H11.8015V52.3667L18.2727 47.1228L24.7438 52.3667V74.5975Z" fill="#85ACF4"/>
<path d="M50.6283 74.5976H37.686V37.0368L44.1572 31.7928L50.6283 37.0368V74.5976Z" fill="#85ACF4"/>
<path d="M78.5466 73.5051L76.2168 71.1811C75.6135 70.5793 74.6364 70.5804 74.0347 71.1839C73.5283 71.6915 73.449 72.4639 73.796 73.0546H65.1137V29.3717C65.1137 28.9064 64.9037 28.466 64.5422 28.1728L58.0711 22.9289C57.5047 22.4699 56.6945 22.47 56.1282 22.9289L49.657 28.1728C49.2955 28.4658 49.0855 28.9064 49.0855 29.3717V73.0546H39.2292V44.7019C39.2292 44.2365 39.0192 43.7962 38.6577 43.503L32.1866 38.2591C31.6203 37.8 30.81 37.8 30.2437 38.2591L23.7726 43.503C23.4111 43.796 23.2011 44.2365 23.2011 44.7019V73.0547H5.41578V5.73004C6.00844 6.08184 6.78594 6.00253 7.29512 5.49227C7.89688 4.88882 7.89564 3.91196 7.29234 3.31005L4.96246 0.986031C4.36024 0.385353 3.38539 0.385353 2.78317 0.986031L0.453287 3.31005C-0.150014 3.91181 -0.151248 4.88882 0.45051 5.49227C0.752006 5.79438 1.14747 5.9456 1.54293 5.9456C1.81542 5.9456 2.08806 5.87369 2.32985 5.7302V74.5977C2.32985 75.4497 3.02063 76.1406 3.87281 76.1406H73.7961C73.449 76.7313 73.5283 77.5036 74.0348 78.0114C74.3363 78.3135 74.7318 78.4647 75.1273 78.4647C75.5215 78.4647 75.9157 78.3144 76.2169 78.0141L78.5468 75.6901C78.837 75.4006 79.0001 75.0075 79.0001 74.5977C79.0001 74.1879 78.8369 73.7946 78.5466 73.5051ZM26.2869 73.0547V45.4374L31.215 41.4438L36.1431 45.4374V73.0546H26.2869V73.0547ZM52.1714 73.0547V30.1074L57.0997 26.1137L62.0278 30.1074V73.0547H52.1714Z" fill="#315BA9"/>
<path d="M12.9828 43.5172C13.2561 43.5172 13.5328 43.4446 13.7833 43.2922L52.6598 19.6402C52.6359 20.2927 53.0311 20.9141 53.6782 21.1478C53.8513 21.2102 54.0281 21.2399 54.202 21.2399C54.8337 21.2399 55.4265 20.8489 55.6533 20.2205L57.1573 16.0545C57.3313 15.5721 57.2545 15.035 56.9522 14.6208C56.6499 14.2066 56.1594 13.9685 55.6492 13.9886L50.9303 14.1625C50.0787 14.1938 49.4137 14.9098 49.4452 15.7612C49.4722 16.4945 50.0081 17.0903 50.6995 17.2207L12.1794 40.6559C11.4514 41.0987 11.2203 42.0479 11.6633 42.7759C11.9538 43.2535 12.4621 43.5172 12.9828 43.5172Z" fill="#315BA9"/>
</g>
<defs>
<clipPath id="clip0">
<rect width="79" height="79" fill="white"/>
</clipPath>
</defs>
</svg>
