<svg width="159" height="53" viewBox="0 0 159 53" fill="none" xmlns="http://www.w3.org/2000/svg">
<g clip-path="url(#clip0)">
<path fill-rule="evenodd" clip-rule="evenodd" d="M151.054 52.558H7.56006C5.55547 52.5583 3.63256 51.7637 2.21295 50.3484C0.793341 48.9331 -0.00711526 47.0126 -0.0129395 45.008V7.54901C-0.00764305 5.54427 0.792677 3.62348 2.2124 2.20807C3.63213 0.792656 5.55531 -0.00183847 7.56006 -0.00103699H151.054C153.059 -0.00183786 154.982 0.792689 156.401 2.20813C157.821 3.62357 158.621 5.54436 158.626 7.54901V45.008C158.62 47.0125 157.82 48.9329 156.401 50.3483C154.981 51.7636 153.059 52.5583 151.054 52.558ZM7.56006 1.22601C5.8811 1.22521 4.2704 1.89051 3.08142 3.07593C1.89244 4.26135 1.22232 5.87006 1.21808 7.54901V45.008C1.22364 46.6863 1.89429 48.2939 3.08307 49.4785C4.27185 50.6632 5.88178 51.3283 7.56006 51.328H151.054C152.732 51.3283 154.342 50.6632 155.531 49.4785C156.72 48.2939 157.391 46.6863 157.396 45.008V7.54901C157.392 5.87006 156.722 4.26135 155.533 3.07593C154.344 1.89051 152.733 1.22521 151.054 1.22601H7.56006ZM123.105 34.668C122.484 34.6758 121.868 34.5532 121.297 34.308C120.748 34.0625 120.274 33.6761 119.922 33.188H119.811C119.883 33.7451 119.92 34.3062 119.922 34.868V39.028H118.387V24.377H119.636L119.848 25.758H119.922C120.271 25.2457 120.746 24.8323 121.301 24.558C121.866 24.3036 122.481 24.1776 123.101 24.189C123.692 24.1564 124.282 24.2641 124.823 24.5032C125.364 24.7424 125.841 25.1062 126.215 25.565C126.934 26.7247 127.314 28.0629 127.311 29.4276C127.308 30.7922 126.922 32.1287 126.197 33.285C125.826 33.7413 125.353 34.1042 124.816 34.3444C124.279 34.5846 123.693 34.6954 123.105 34.668ZM122.883 25.488C122.468 25.4502 122.049 25.5082 121.659 25.6572C121.27 25.8063 120.919 26.0425 120.635 26.348C120.104 27.155 119.854 28.1144 119.922 29.078V29.418C119.83 30.4845 120.08 31.5526 120.635 32.468C120.917 32.7903 121.27 33.0416 121.667 33.2015C122.064 33.3613 122.494 33.4253 122.92 33.388C123.325 33.402 123.728 33.3119 124.088 33.1263C124.449 32.9408 124.756 32.6659 124.98 32.328C125.521 31.4538 125.781 30.4345 125.724 29.408C125.788 28.3839 125.528 27.3656 124.98 26.498C124.741 26.1698 124.424 25.9059 124.058 25.7297C123.693 25.5535 123.289 25.4704 122.883 25.488ZM130.871 34.488H129.336V20.134H130.869V34.488H130.871ZM139.702 34.488L139.396 33.048H139.322C138.924 33.5885 138.406 34.0299 137.809 34.338C137.211 34.5757 136.57 34.688 135.927 34.668C135.07 34.7166 134.226 34.4419 133.562 33.898C133.268 33.6133 133.04 33.2683 132.892 32.8868C132.744 32.5053 132.681 32.0963 132.707 31.688C132.707 29.648 134.344 28.578 137.619 28.478L139.341 28.428V27.798C139.392 27.1681 139.209 26.5415 138.827 26.038C138.607 25.8354 138.348 25.6809 138.065 25.5845C137.782 25.488 137.483 25.4518 137.185 25.478C136.183 25.5148 135.202 25.7781 134.316 26.248L133.844 25.078C134.901 24.5149 136.079 24.2173 137.277 24.211C138.242 24.1323 139.201 24.4177 139.965 25.011C140.283 25.3552 140.525 25.7622 140.675 26.2057C140.826 26.6493 140.882 27.1195 140.839 27.586V34.486H139.702V34.488ZM136.232 33.408C137.057 33.455 137.866 33.1748 138.485 32.628C138.766 32.3378 138.984 31.9925 139.125 31.6138C139.266 31.2352 139.327 30.8314 139.304 30.428V29.518L137.767 29.578C136.853 29.5455 135.945 29.7414 135.126 30.148C134.862 30.3096 134.647 30.5402 134.504 30.8152C134.361 31.0901 134.296 31.3989 134.316 31.708C134.299 31.9421 134.335 32.1771 134.422 32.3953C134.508 32.6135 134.643 32.8093 134.816 32.968C135.219 33.2826 135.722 33.439 136.232 33.408ZM141.732 24.377H143.378L145.599 30.138C145.965 31.0668 146.268 32.0189 146.507 32.988H146.58C146.661 32.678 146.829 32.138 147.08 31.378C147.331 30.618 148.174 28.288 149.592 24.378H151.24L146.881 35.889C146.589 36.8105 146.069 37.643 145.368 38.309C144.77 38.7966 144.016 39.0523 143.245 39.029C142.778 39.0258 142.313 38.9722 141.857 38.869V37.639C142.231 37.719 142.613 37.7559 142.995 37.749C143.514 37.7455 144.018 37.5699 144.426 37.2496C144.835 36.9292 145.126 36.4824 145.253 35.979L145.817 34.539L141.732 24.377ZM94.655 25.318C95.1413 25.6481 95.5347 26.0976 95.7975 26.6234C96.0603 27.1491 96.1837 27.7335 96.1559 28.3206C96.1281 28.9077 95.95 29.4779 95.6387 29.9764C95.3274 30.475 94.8933 30.8852 94.3781 31.168C94.2136 31.2919 94.0761 31.448 93.9739 31.6268C93.8718 31.8056 93.8072 32.0034 93.7841 32.208C93.7961 32.3929 93.8526 32.5721 93.9487 32.7305C94.0448 32.8889 94.1777 33.0219 94.3361 33.118L95.1 33.708C96.034 34.488 96.881 35.208 96.881 36.668C96.881 38.658 94.951 40.668 91.303 40.668C88.227 40.668 86.743 39.208 86.743 37.638C86.7642 37.1035 86.9266 36.5841 87.2136 36.1327C87.5006 35.6813 87.902 35.3139 88.3771 35.068C89.6342 34.4344 91.0203 34.0991 92.428 34.088C92.0476 33.7056 91.8209 33.1966 91.7911 32.658C91.7976 32.3688 91.8701 32.0849 92.0031 31.828C91.7691 31.848 91.536 31.868 91.324 31.868C90.8724 31.8912 90.4208 31.8227 89.9963 31.6667C89.5719 31.5106 89.1834 31.2703 88.8544 30.96C88.5254 30.6498 88.2626 30.2761 88.0819 29.8616C87.9012 29.447 87.8064 29.0002 87.803 28.548C87.8142 28.0068 87.9412 27.4742 88.1752 26.9861C88.4093 26.498 88.745 26.0656 89.16 25.718C90.2502 24.895 91.596 24.4831 92.9601 24.555H97.329L95.9711 25.318H94.657H94.655ZM93.1481 34.708C92.9872 34.6817 92.824 34.6717 92.6611 34.678C91.9073 34.6956 91.1588 34.8099 90.4341 35.018C89.9363 35.1375 89.49 35.4139 89.1614 35.8065C88.8327 36.199 88.6391 36.6869 88.6091 37.198C88.6091 38.698 90.0741 39.778 92.3431 39.778C94.3781 39.778 95.4611 38.808 95.4611 37.498C95.4601 36.418 94.76 35.848 93.147 34.708H93.1481ZM93.764 30.688C94.1388 30.2619 94.3291 29.7044 94.293 29.138C94.293 27.618 93.381 25.248 91.621 25.248C91.3381 25.253 91.0594 25.3179 90.8034 25.4386C90.5474 25.5593 90.32 25.7329 90.136 25.948C89.8059 26.4028 89.6411 26.9567 89.6691 27.518C89.6691 28.928 90.4971 31.278 92.3221 31.278C92.8589 31.2668 93.3725 31.0565 93.7631 30.688H93.764ZM81.3021 34.368C80.6329 34.3917 79.9657 34.2806 79.3404 34.0411C78.7151 33.8016 78.1444 33.4387 77.6622 32.974C77.1801 32.5093 76.7964 31.9523 76.534 31.3362C76.2716 30.7202 76.136 30.0576 76.1351 29.388C76.1487 28.6877 76.3026 27.9973 76.5876 27.3575C76.8726 26.7177 77.2829 26.1414 77.7943 25.6628C78.3056 25.1843 78.9077 24.813 79.565 24.571C80.2223 24.3291 80.9214 24.2212 81.621 24.254C82.2834 24.2381 82.9423 24.3557 83.5583 24.5995C84.1744 24.8434 84.7352 25.2087 85.2072 25.6737C85.6793 26.1387 86.053 26.6938 86.3062 27.3062C86.5594 27.9185 86.6869 28.5754 86.681 29.238C86.6767 29.9317 86.5327 30.6175 86.2576 31.2543C85.9825 31.8912 85.5819 32.4661 85.0798 32.9449C84.5778 33.4236 83.9844 33.7963 83.3352 34.0408C82.686 34.2853 81.9942 34.3966 81.301 34.368H81.3021ZM83.9481 32.658C84.4108 31.965 84.6345 31.1398 84.5851 30.308C84.5851 28.458 83.695 24.908 81.069 24.908C80.3687 24.9142 79.6935 25.1695 79.1641 25.628C78.8195 25.9581 78.553 26.3611 78.3843 26.8076C78.2156 27.254 78.1489 27.7325 78.189 28.208C78.189 30.288 79.2271 33.728 81.7891 33.728C82.2068 33.7276 82.6189 33.6309 82.9932 33.4453C83.3674 33.2597 83.6939 32.9903 83.9471 32.658H83.9481ZM69.824 34.368C69.1548 34.3917 68.4878 34.2806 67.8624 34.0411C67.2371 33.8016 66.6663 33.4387 66.1842 32.974C65.7021 32.5093 65.3184 31.9523 65.056 31.3362C64.7937 30.7202 64.658 30.0576 64.657 29.388C64.6706 28.6878 64.8243 27.9974 65.1092 27.3575C65.3941 26.7177 65.8042 26.1415 66.3156 25.6629C66.8269 25.1843 67.429 24.813 68.0862 24.571C68.7434 24.3291 69.4424 24.2212 70.142 24.254C70.8045 24.238 71.4635 24.3554 72.0797 24.5992C72.6958 24.8431 73.2567 25.2084 73.7289 25.6733C74.201 26.1383 74.5749 26.6935 74.8281 27.3059C75.0814 27.9183 75.2089 28.5753 75.2031 29.238C75.1987 29.9317 75.0546 30.6175 74.7795 31.2543C74.5044 31.8912 74.1039 32.4661 73.6019 32.9449C73.0998 33.4236 72.5065 33.7963 71.8572 34.0408C71.208 34.2853 70.5162 34.3966 69.8231 34.368H69.824ZM72.4711 32.658C72.9334 31.9648 73.1567 31.1397 73.1071 30.308C73.1071 28.458 72.2171 24.908 69.5911 24.908C68.8925 24.9154 68.2191 25.1706 67.691 25.628C67.3466 25.9582 67.0804 26.3613 66.9119 26.8077C66.7433 27.2541 66.6768 27.7326 66.717 28.208C66.717 30.288 67.7531 33.728 70.3171 33.728C70.7338 33.7266 71.1447 33.6294 71.5178 33.4438C71.891 33.2583 72.2164 32.9894 72.4691 32.658H72.4711ZM63.0391 34.038L59.9951 34.738C58.8351 34.9485 57.6606 35.0688 56.4821 35.098C50.6051 35.098 48.371 30.788 48.371 27.408C48.371 23.295 51.5421 19.476 56.9711 19.476C58.0717 19.4781 59.1671 19.6277 60.228 19.921C61.2388 20.1798 62.192 20.6263 63.038 21.237L61.2711 22.914L60.5261 23.083L61.058 22.234C60.4817 21.5998 59.7779 21.0943 58.9929 20.7507C58.2078 20.4071 57.359 20.2331 56.5021 20.24C53.1381 20.24 50.6021 22.787 50.6021 26.498C50.5711 27.5061 50.7432 28.5101 51.1082 29.4503C51.4733 30.3905 52.0237 31.2477 52.7269 31.9708C53.43 32.6939 54.2714 33.2682 55.201 33.6594C56.1307 34.0506 57.1295 34.2507 58.1381 34.248C59.0657 34.2677 59.9867 34.087 60.8381 33.718V30.298L57.6241 30.468L59.324 29.558H63.8381L63.285 30.088C63.2278 30.1268 63.1792 30.177 63.1424 30.2355C63.1056 30.2941 63.0813 30.3596 63.071 30.428C63.049 30.618 63.0291 31.228 63.0291 31.448V34.038H63.0391ZM101.384 33.428C100.684 33.358 100.534 33.238 100.534 32.408V20.388C100.534 20.343 100.541 20.296 100.545 20.252C100.554 19.969 100.652 19.696 100.824 19.4713C100.996 19.2465 101.234 19.0813 101.505 18.999H98.459L96.8591 19.763H98.4861V32.863C98.4756 33.0812 98.419 33.2947 98.3201 33.4894C98.2211 33.6842 98.0821 33.8558 97.912 33.993H101.681L102.468 33.523C102.108 33.488 101.745 33.468 101.383 33.428H101.384ZM110.047 33.618C109.815 33.748 109.582 33.898 109.347 33.998C108.7 34.2782 107.999 34.4147 107.294 34.398C106.292 34.4448 105.302 34.1562 104.482 33.578C103.798 33.0582 103.246 32.3842 102.872 31.611C102.497 30.8377 102.31 29.987 102.326 29.128C102.315 28.4878 102.432 27.8518 102.671 27.2578C102.91 26.6638 103.266 26.1238 103.717 25.6699C104.169 25.216 104.707 24.8574 105.3 24.6154C105.892 24.3734 106.528 24.2529 107.168 24.261C107.935 24.251 108.69 24.4557 109.347 24.852C110.086 25.3347 110.615 26.0804 110.825 26.938L105.858 28.938L104.229 29.068C104.757 31.748 106.575 33.298 108.585 33.298C109.492 33.2731 110.379 33.0222 111.164 32.568L110.047 33.618ZM108.06 27.338C108.212 27.3271 108.355 27.2645 108.467 27.1609C108.578 27.0572 108.651 26.9186 108.673 26.768C108.603 26.2634 108.352 25.8013 107.967 25.468C107.582 25.1346 107.088 24.9526 106.579 24.956C106.222 24.9762 105.873 25.0698 105.554 25.2309C105.235 25.392 104.953 25.6172 104.725 25.8923C104.497 26.1675 104.328 26.4867 104.228 26.8301C104.129 27.1734 104.102 27.5336 104.148 27.888C104.148 28.248 104.19 28.628 104.212 29.008L108.06 27.338ZM112.088 24.405V25.798H111.918V24.405H111.457V24.261H112.549V24.405H112.088ZM113.988 25.798V24.388H113.98L113.55 25.794H113.417L112.984 24.388V25.794H112.83V24.257H113.094L113.486 25.494L113.873 24.257H114.14V25.794H113.989L113.988 25.798ZM52.597 15.343H51.5391C51.477 14.9237 51.3766 14.5109 51.2391 14.11H49.712C49.5676 14.5096 49.4634 14.9227 49.4011 15.343H48.4011C48.4011 15.257 48.6584 14.554 49.173 13.234C49.4812 12.5257 49.7392 11.7965 49.9451 11.052H51.1951C51.3834 11.7825 51.6172 12.5006 51.8951 13.202C52.1718 13.901 52.4065 14.616 52.5981 15.343H52.597ZM51.069 13.481C50.8495 12.8781 50.6613 12.2643 50.5051 11.642H50.452C50.452 11.728 50.2567 12.341 49.866 13.481H51.066H51.069ZM56.86 15.343H56.043C55.7911 14.8367 55.4864 14.3584 55.134 13.916C54.6886 13.3483 54.3238 12.7217 54.05 12.054H53.9971C54.0493 12.4871 54.077 12.9228 54.0801 13.359C54.0801 13.9017 54.0954 14.563 54.126 15.343H53.313C53.3464 14.6624 53.3627 13.9143 53.3621 13.099C53.3621 12.299 53.3457 11.6167 53.313 11.052H54.2941C54.5046 11.5502 54.7793 12.0188 55.1111 12.446C55.5156 12.9882 55.8515 13.5783 56.1111 14.203H56.16C56.11 13.7651 56.0833 13.3247 56.0801 12.884C56.0801 12.2886 56.0647 11.678 56.0341 11.052H56.8611C56.8298 11.5967 56.814 12.279 56.814 13.099C56.814 13.919 56.8298 14.667 56.8611 15.343H56.86ZM61.652 13.049C61.661 13.6494 61.4473 14.2319 61.0521 14.684C60.8418 14.92 60.5811 15.1055 60.2891 15.2267C59.9972 15.3479 59.6816 15.4017 59.366 15.384C59.0394 15.384 58.5897 15.3707 58.017 15.344C58.045 14.6773 58.0594 13.9293 58.0601 13.1C58.0601 12.3 58.0457 11.6176 58.017 11.053H58.5961C58.6901 11.053 58.831 11.053 59.019 11.043C59.207 11.033 59.328 11.033 59.386 11.033C59.7 11.004 60.0166 11.042 60.3148 11.1443C60.613 11.2467 60.8861 11.4113 61.116 11.627C61.4709 12.0145 61.6632 12.5237 61.6531 13.049H61.652ZM60.7521 13.191C60.7634 12.8023 60.6318 12.4231 60.3821 12.125C60.2378 11.973 60.0613 11.8551 59.8657 11.78C59.67 11.7049 59.46 11.6745 59.251 11.691C59.1206 11.6936 58.9904 11.7036 58.8611 11.721C58.8831 12.161 58.894 12.6203 58.894 13.099C58.894 13.6243 58.9051 14.145 58.9271 14.661C59.0687 14.6892 59.2127 14.7036 59.3571 14.704C59.5549 14.7194 59.7536 14.6876 59.9366 14.6111C60.1197 14.5346 60.282 14.4156 60.41 14.264C60.6426 13.9545 60.7625 13.5749 60.7501 13.188L60.7521 13.191ZM66.0731 15.343H65.0941C64.9564 14.8412 64.759 14.3577 64.506 13.903C64.4262 13.8073 64.3244 13.7324 64.2093 13.6847C64.0942 13.637 63.9692 13.6178 63.845 13.629C63.717 13.629 63.594 13.629 63.478 13.629C63.478 14.193 63.4871 14.764 63.5071 15.339H62.5881C62.6167 14.6723 62.631 13.9243 62.631 13.095C62.631 12.295 62.6167 11.6126 62.5881 11.048H63.16C63.226 11.048 63.3651 11.048 63.5751 11.038C63.7851 11.028 63.9751 11.028 64.1591 11.028C65.1697 11.028 65.6754 11.373 65.676 12.063C65.6806 12.3231 65.5977 12.5772 65.4407 12.7846C65.2837 12.992 65.0616 13.1407 64.8101 13.207V13.256C65.0654 13.3458 65.2755 13.5321 65.3951 13.775C65.6579 14.2804 65.8832 14.8045 66.069 15.343H66.0731ZM64.8331 12.311C64.8331 12.2076 64.8095 12.1057 64.7641 12.0129C64.7187 11.9201 64.6526 11.8389 64.5709 11.7756C64.4893 11.7123 64.3942 11.6684 64.293 11.6475C64.1918 11.6266 64.0871 11.6292 63.9871 11.655C63.803 11.6533 63.6192 11.6687 63.438 11.701C63.462 12.0417 63.4741 12.4856 63.4741 13.033C63.5951 13.033 63.698 13.039 63.782 13.039C64.482 13.039 64.8317 12.7963 64.8311 12.311H64.8331ZM70.8121 13.119C70.8329 13.738 70.6095 14.3403 70.1901 14.796C69.9965 15.0106 69.7591 15.1811 69.4939 15.296C69.2287 15.4109 68.942 15.4675 68.6531 15.462C68.3802 15.4682 68.1091 15.417 67.8574 15.3115C67.6057 15.2061 67.379 15.0488 67.1921 14.85C66.9955 14.6433 66.8422 14.3995 66.7411 14.1328C66.64 13.8661 66.593 13.582 66.603 13.297C66.582 12.6777 66.8055 12.075 67.225 11.619C67.4186 11.4044 67.656 11.2339 67.9212 11.119C68.1864 11.0041 68.4731 10.9475 68.7621 10.953C69.0348 10.9466 69.3057 10.9976 69.5574 11.1027C69.8091 11.2078 70.0359 11.3646 70.2231 11.563C70.4194 11.7703 70.5724 12.0148 70.6732 12.2819C70.7739 12.5491 70.8205 12.8337 70.8101 13.119H70.8121ZM69.899 13.214C69.9172 12.8115 69.7917 12.4156 69.545 12.097C69.4429 11.9627 69.311 11.8541 69.1597 11.7796C69.0083 11.7051 68.8417 11.6669 68.673 11.668C68.5118 11.6692 68.3532 11.7091 68.2105 11.7842C68.0678 11.8594 67.9452 11.9677 67.853 12.1C67.6197 12.4146 67.5008 12.7995 67.5161 13.191C67.4978 13.5931 67.6237 13.9884 67.871 14.306C67.973 14.4403 68.1047 14.5491 68.2559 14.6239C68.407 14.6987 68.5734 14.7374 68.7421 14.737C68.9035 14.7355 69.0622 14.6953 69.2049 14.6198C69.3476 14.5443 69.4701 14.4356 69.5621 14.303C69.7943 13.9886 69.9124 13.6045 69.897 13.214H69.899ZM72.681 15.343H71.7451C71.7737 14.6624 71.788 13.9143 71.788 13.099C71.788 12.299 71.7737 11.6167 71.7451 11.052H72.681C72.6524 11.606 72.6381 12.2883 72.6381 13.099C72.6367 13.927 72.6504 14.675 72.6791 15.343H72.681ZM77.4691 13.049C77.4781 13.6495 77.2644 14.2319 76.8691 14.684C76.6589 14.92 76.398 15.1055 76.1061 15.2267C75.8141 15.3479 75.4986 15.4017 75.183 15.384C74.857 15.384 74.4074 15.3707 73.834 15.344C73.8627 14.6773 73.8771 13.9293 73.8771 13.1C73.8771 12.3 73.8627 11.6176 73.834 11.053H74.413C74.507 11.053 74.6481 11.053 74.8361 11.043C75.0241 11.033 75.1451 11.033 75.2031 11.033C75.517 11.004 75.8336 11.042 76.1318 11.1443C76.43 11.2467 76.7031 11.4113 76.933 11.627C77.2876 12.0147 77.4795 12.5238 77.4691 13.049ZM76.569 13.191C76.5804 12.8023 76.4487 12.4231 76.199 12.125C76.0547 11.973 75.8784 11.8551 75.6827 11.78C75.487 11.7049 75.277 11.6745 75.0681 11.691C74.9376 11.6936 74.8074 11.7036 74.678 11.721C74.7 12.161 74.7111 12.6203 74.7111 13.099C74.7111 13.6243 74.7221 14.145 74.7441 14.661C74.8857 14.6892 75.0297 14.7035 75.1741 14.704C75.3719 14.7194 75.5706 14.6876 75.7537 14.6111C75.9368 14.5346 76.099 14.4156 76.2271 14.264C76.4603 13.9547 76.5809 13.5751 76.569 13.188V13.191ZM83.8281 15.343H82.769C82.7067 14.9238 82.6063 14.511 82.4691 14.11H80.9421C80.7976 14.5096 80.6934 14.9227 80.631 15.343H79.6371C79.6371 15.257 79.8941 14.554 80.4081 13.234C80.7163 12.5257 80.9742 11.7965 81.1801 11.052H82.4301C82.6184 11.7825 82.8522 12.5006 83.1301 13.202C83.4047 13.9011 83.6375 14.6161 83.827 15.343H83.8281ZM82.301 13.481C82.0809 12.8782 81.8924 12.2644 81.7361 11.642H81.683C81.5188 12.2643 81.3236 12.8782 81.0981 13.481H82.298H82.301ZM87.6851 12.181C87.7 12.4096 87.6534 12.638 87.5502 12.8425C87.4469 13.047 87.2908 13.2202 87.0981 13.344C86.6647 13.6063 86.1644 13.7369 85.6581 13.72C85.5581 13.72 85.4811 13.72 85.4371 13.713C85.4371 14.127 85.4491 14.671 85.4731 15.348H84.5441C84.5727 14.7133 84.587 13.9653 84.587 13.104C84.587 12.3133 84.5727 11.631 84.5441 11.057H85.1191C85.2011 11.057 85.357 11.057 85.5891 11.047C85.8211 11.037 86.021 11.037 86.189 11.037C86.5633 11.0249 86.9328 11.1237 87.251 11.321C87.3918 11.4131 87.5059 11.5406 87.5819 11.6906C87.6579 11.8407 87.6931 12.008 87.6841 12.176L87.6851 12.181ZM86.832 12.362C86.832 11.892 86.5191 11.6587 85.8931 11.662C85.7252 11.6625 85.5578 11.6789 85.3931 11.711C85.4171 12.127 85.4291 12.5973 85.4291 13.122C85.4841 13.122 85.548 13.129 85.621 13.129C86.4284 13.1223 86.8317 12.865 86.8311 12.357L86.832 12.362ZM91.6501 12.181C91.665 12.4096 91.6184 12.638 91.5151 12.8425C91.4119 13.047 91.2558 13.2202 91.063 13.344C90.6297 13.6063 90.1294 13.7369 89.623 13.72C89.523 13.72 89.446 13.72 89.402 13.713C89.402 14.127 89.414 14.671 89.438 15.348H88.509C88.5377 14.7133 88.5521 13.9653 88.5521 13.104C88.5521 12.3133 88.5377 11.631 88.509 11.057H89.084C89.166 11.057 89.3221 11.057 89.5541 11.047C89.7861 11.037 89.9861 11.037 90.1541 11.037C90.5283 11.0249 90.8978 11.1237 91.2161 11.321C91.3568 11.4131 91.4709 11.5406 91.5469 11.6906C91.6229 11.8407 91.6581 12.008 91.649 12.176L91.6501 12.181ZM90.7971 12.362C90.7971 11.892 90.484 11.6587 89.858 11.662C89.6902 11.6625 89.5228 11.6789 89.358 11.711C89.382 12.127 89.394 12.5973 89.394 13.122C89.449 13.122 89.5131 13.129 89.5861 13.129C90.3927 13.1223 90.7961 12.865 90.7961 12.357L90.7971 12.362ZM98.1321 13.124C98.1528 13.7427 97.9297 14.3449 97.511 14.801C97.3173 15.0156 97.0797 15.1861 96.8144 15.301C96.5491 15.4159 96.2622 15.4725 95.9731 15.467C95.7003 15.4731 95.4292 15.4217 95.1775 15.3163C94.9258 15.2109 94.6991 15.0537 94.5121 14.855C94.3159 14.6481 94.1628 14.4043 94.0619 14.1376C93.9609 13.871 93.9141 13.5869 93.9241 13.302C93.9032 12.6829 94.1262 12.0803 94.545 11.624C94.7388 11.4093 94.9764 11.2389 95.2417 11.124C95.507 11.0091 95.794 10.9525 96.0831 10.958C96.3557 10.9517 96.6267 11.0027 96.8784 11.1078C97.13 11.2129 97.3568 11.3697 97.5441 11.568C97.7398 11.7748 97.8924 12.0184 97.9932 12.2846C98.0939 12.5509 98.1408 12.8345 98.131 13.119L98.1321 13.124ZM97.22 13.219C97.2381 12.8165 97.1127 12.4206 96.866 12.102C96.7637 11.9678 96.6315 11.8592 96.48 11.7847C96.3285 11.7103 96.1618 11.672 95.993 11.673C95.8318 11.6742 95.6732 11.7141 95.5305 11.7892C95.3878 11.8644 95.2652 11.9727 95.173 12.105C94.9401 12.4198 94.8213 12.8046 94.8361 13.196C94.8182 13.5982 94.9445 13.9935 95.1921 14.311C95.294 14.4453 95.4257 14.5541 95.5768 14.6289C95.728 14.7037 95.8944 14.7424 96.063 14.742C96.2245 14.7405 96.3832 14.7003 96.5259 14.6248C96.6686 14.5493 96.7911 14.4406 96.8831 14.308C97.1163 13.9922 97.2348 13.6063 97.2191 13.214L97.22 13.219ZM102.613 15.348H101.797C101.545 14.8416 101.24 14.3633 100.888 13.921C100.442 13.3532 100.077 12.7266 99.803 12.059H99.7491C99.8013 12.4921 99.8289 12.9278 99.832 13.364C99.832 13.9067 99.8474 14.568 99.8781 15.348H99.069C99.1024 14.6673 99.1191 13.9193 99.1191 13.104C99.1191 12.304 99.1024 11.6217 99.069 11.057H100.051C100.261 11.5553 100.535 12.024 100.867 12.451C101.272 12.9932 101.607 13.5833 101.867 14.208H101.916C101.867 13.77 101.84 13.3297 101.837 12.889C101.837 12.2936 101.822 11.683 101.791 11.057H102.617C102.586 11.6017 102.57 12.284 102.571 13.104C102.572 13.924 102.585 14.6704 102.612 15.343L102.613 15.348ZM41.4321 26.533C40.8111 26.203 34.892 22.772 34.832 22.739L14.8171 11.218C14.5009 11.0285 14.1406 10.925 13.772 10.918C13.5585 10.9161 13.3469 10.9588 13.1508 11.0433C12.9546 11.1278 12.7782 11.2523 12.6328 11.4088C12.4874 11.5653 12.3763 11.7503 12.3065 11.9521C12.2366 12.154 12.2095 12.3681 12.2271 12.581V43.488C12.2137 43.6778 12.2393 43.8683 12.3024 44.0478C12.3655 44.2273 12.4648 44.3919 12.594 44.5315C12.7232 44.6711 12.8797 44.7828 13.0538 44.8596C13.2278 44.9364 13.4158 44.9767 13.6061 44.978C13.9255 44.9714 14.2378 44.8818 14.5121 44.718L41.4001 29.238C41.6701 29.1168 41.9007 28.9224 42.0656 28.6766C42.2306 28.4309 42.3232 28.1438 42.3331 27.848C42.3167 27.5668 42.2242 27.2954 42.0652 27.0628C41.9063 26.8303 41.6871 26.6454 41.431 26.528L41.4321 26.533ZM40.7581 27.883C40.7251 27.9064 40.69 27.9265 40.6531 27.943L34.5811 31.443L30.9811 27.883L34.5811 24.325C35.7151 24.982 40.142 27.543 40.72 27.853L40.7581 27.883ZM29.913 28.943L33.2311 32.223L17.3441 41.363L29.913 28.943ZM17.342 14.401L33.2311 23.547L29.913 26.823L17.342 14.401ZM28.842 27.883L13.733 42.813V12.944L28.842 27.883Z" fill="white"/>
</g>
<defs>
<clipPath id="clip0">
<rect width="158.625" height="52.568" fill="white"/>
</clipPath>
</defs>
</svg>
