<svg id="Layer_1" data-name="Layer 1" xmlns="http://www.w3.org/2000/svg" viewBox="0 0 300 300"><defs><style>.cls-1{fill:#ffffff;}</style></defs><title>Logos</title><path class="cls-1" d="M109.44,123.48a29.5,29.5,0,0,1,1.71-3.41,13.35,13.35,0,0,1,4-4.41,8.52,8.52,0,0,1,4.64-1.4,14.13,14.13,0,0,1,9.56,3.2,16.72,16.72,0,0,1,4.68,6.65,66.54,66.54,0,0,1,3.81,13.68A93.41,93.41,0,0,1,139.21,150c.09,1.94.06,3.89.17,5.83.24,4.19.15,8.39.11,12.58q0,3.14-.28,6.28c-.1,1.24-.05,2.49-.07,3.74a9.37,9.37,0,0,1-.45,2.87,5.91,5.91,0,0,1-3.34,3.66,9.68,9.68,0,0,1-6.77.52,6,6,0,0,1-4.61-5.19,13.22,13.22,0,0,1-.16-2.18c0-2.07-.05-4.14,0-6.2.26-6,.13-11.91.1-17.87,0-3.95-.16-7.9-.37-11.84s-.54-7.76-1.08-11.61a22.77,22.77,0,0,0-.93-4.18,9.38,9.38,0,0,0-.74-1.66,1.87,1.87,0,0,0-3.34-.27,9.8,9.8,0,0,0-1.47,2.61,45.94,45.94,0,0,0-2.36,8.7c-1.15,5.78-2,11.61-2.71,17.47-.38,3.32-.66,6.65-1,10-.43,4.6-.75,9.2-.78,13.83a13.42,13.42,0,0,1-.42,3.79,6.32,6.32,0,0,1-3.48,4.1,8.46,8.46,0,0,1-6.3.51,6.55,6.55,0,0,1-4.91-5.92,28,28,0,0,1-.16-3q0-26.86,0-53.72a14.41,14.41,0,0,1,.35-3.44,6.15,6.15,0,0,1,4-4.51,8.58,8.58,0,0,1,8.1,1,6.21,6.21,0,0,1,2.71,5c.07.87.12,1.74.17,2.61Z"/><path class="cls-1" d="M75.29,176.49l-.54,1.24A17.14,17.14,0,0,1,71,183.36a8.71,8.71,0,0,1-6.16,2.52,14.15,14.15,0,0,1-9.39-3.15,16.36,16.36,0,0,1-4.56-6.29,58,58,0,0,1-3.11-9.91,83.77,83.77,0,0,1-1.87-11.6c-.36-3.85-.46-7.7-.56-11.56-.08-3-.13-6-.12-9,0-3.71.32-7.41.36-11.11a26,26,0,0,1,.18-3,6,6,0,0,1,3.2-4.81,9.25,9.25,0,0,1,8.35-.33,5.48,5.48,0,0,1,3.14,3.37,9.49,9.49,0,0,1,.48,3c.05,4.44-.24,8.87-.18,13.31,0,2.71-.06,5.41,0,8.12.12,3.34,0,6.69.17,10,.17,4.07.34,8.13.72,12.19a43.88,43.88,0,0,0,1.23,7.73,11,11,0,0,0,.83,2.21c.07.13.14.27.22.4a1.82,1.82,0,0,0,3.21.28,8.54,8.54,0,0,0,1.37-2.25,38.1,38.1,0,0,0,2.17-7.24c1.28-5.94,2.25-11.94,3-18,.44-3.74.78-7.49,1.09-11.24.41-5,.75-9.94.73-14.92a10.1,10.1,0,0,1,.3-2.35,6.49,6.49,0,0,1,4-4.75,8.54,8.54,0,0,1,7.4.24,6,6,0,0,1,3.21,4,13.18,13.18,0,0,1,.41,3.52q0,24.08,0,48.16,0,3.6,0,7.21a11,11,0,0,1-.37,2.79,6,6,0,0,1-3.78,4.25,8.7,8.7,0,0,1-7.49-.37,6.19,6.19,0,0,1-3.35-4.21,12.15,12.15,0,0,1-.33-2.71c0-.45,0-.91,0-1.36Z"/><path class="cls-1" d="M279.77,171.87c0-2.37,0-4.74,0-7.11-.09-3.52-.24-7-.38-10.57,0-.39-.11-.78-.12-1.18s-.23-.73-.73-.71H260.38c-.86,0-.9.05-1,.93-.44,3.31-.78,6.64-1.1,10-.27,2.78-.47,5.57-.65,8.36-.14,2.27-.22,4.55-.21,6.83a6.46,6.46,0,0,1-4,6.22,8.36,8.36,0,0,1-5.59.7,5.88,5.88,0,0,1-4.75-4.39,14.53,14.53,0,0,1-.49-3.42,29,29,0,0,1,.05-4.37,6.44,6.44,0,0,0,0-.73c0-3.77.15-7.54.43-11.29a120.36,120.36,0,0,1,3.22-21.42,51,51,0,0,1,4.52-11.9,29,29,0,0,1,7.21-8.85,20.81,20.81,0,0,1,10.71-4.48,19.3,19.3,0,0,1,5-.05,12,12,0,0,1,8.17,5,24.69,24.69,0,0,1,3.81,8.13,109.73,109.73,0,0,1,3.46,17.14c.4,3.26.66,6.53.82,9.81.33,6.9.37,13.79.31,20.69,0,1.88-.1,3.77-.2,5.65a5.08,5.08,0,0,1-5,4.86,6.56,6.56,0,0,1-2.35-.2,3.77,3.77,0,0,1-2.85-3.11,8.71,8.71,0,0,1-.2-2.08c0-.06,0-.12,0-.18q0-4.1,0-8.21Zm-10.1-28.4h7.93c.84,0,.91-.1.81-.9-.21-1.69-.4-3.38-.66-5.06a50.21,50.21,0,0,0-2.06-8.78,8.78,8.78,0,0,0-1.54-2.88,3,3,0,0,0-2.47-1.15,5.23,5.23,0,0,0-3.39,1.37,12.17,12.17,0,0,0-3,4.1,58.79,58.79,0,0,0-4.09,12.54c-.15.66-.08.72.61.75h7.84Z"/><path class="cls-1" d="M218.1,152.29h-8.75c-1,0-1.09.1-1.2,1.06-.41,3.62-.84,7.24-1.15,10.87-.41,4.72-.72,9.45-.73,14.19a6.71,6.71,0,0,1-4.6,6.48,8.49,8.49,0,0,1-6.15.06,5.38,5.38,0,0,1-3.28-3.21,9.82,9.82,0,0,1-.74-3.55c0-2.77-.06-5.53,0-8.3.11-3.31.27-6.62.52-9.92a117.63,117.63,0,0,1,3.06-20,51.8,51.8,0,0,1,4.45-11.93,30.63,30.63,0,0,1,5.66-7.67,21.18,21.18,0,0,1,12.34-6,19.5,19.5,0,0,1,5-.06,12.22,12.22,0,0,1,8.63,5.54,26.27,26.27,0,0,1,3.53,8,112.48,112.48,0,0,1,3.45,17.51c.28,2.41.48,4.83.63,7.26.24,4,.27,8.08.39,12.11.08,2.83.17,5.65.07,8.47s0,5.41-.31,8.1a4.11,4.11,0,0,1-1.95,3.24,6.77,6.77,0,0,1-4.34,1.08,4.09,4.09,0,0,1-4-4c0-.42,0-.85,0-1.28,0-2.8,0-5.59,0-8.39.05-3.83-.17-7.66-.21-11.48,0-2.43-.22-4.85-.34-7.28,0-.81-.13-.91-1-.91Zm.48-8.82h7.57c1.06,0,1.14-.09,1.08-1.15,0-.12,0-.24,0-.36-.23-1.68-.44-3.37-.71-5.05a51.64,51.64,0,0,0-1.85-7.89,10.58,10.58,0,0,0-1.46-2.93,3.06,3.06,0,0,0-3-1.38,5.64,5.64,0,0,0-3.32,1.56,11.84,11.84,0,0,0-2.46,3.37,46.5,46.5,0,0,0-3,7.73c-.53,1.75-1,3.51-1.37,5.29-.14.66-.05.76.59.81.21,0,.43,0,.64,0Z"/><path class="cls-1" d="M164.71,114.27c3,0,6.08,0,9.12,0,2.31,0,4.61-.2,6.92-.15a11.12,11.12,0,0,1,3.67.61,4.52,4.52,0,0,1,2.88,3.17,10,10,0,0,1-.09,5.66,25.71,25.71,0,0,1-1.33,3.39q-3.63,8.17-7.63,16.16c-2.68,5.35-5.53,10.62-8.42,15.86-3.12,5.67-6.24,11.34-9.48,16.95-.08.13-.15.27-.21.4-.14.31,0,.46.31.48h.36c3,0,6,.09,8.94,0s6.2-.08,9.3-.1a8.3,8.3,0,0,1,3.29.63,4.27,4.27,0,0,1,2.55,2.8,4,4,0,0,1-1.84,4.55,8.1,8.1,0,0,1-4,1c-3.43,0-6.87-.06-10.3,0-5.65.18-11.3,0-17,.1a15.72,15.72,0,0,1-2.27-.14,5.53,5.53,0,0,1-3.58-2,8.23,8.23,0,0,1-1.79-6.83,18.7,18.7,0,0,1,1.83-5.61q5.93-12,11.9-23.92,3.2-6.4,6.47-12.77c1.77-3.43,3.63-6.81,5.45-10.22.65-1.22.64-1.26-.78-1.22-5.56.17-11.12.13-16.68.16a10.45,10.45,0,0,1-3.14-.46,3.9,3.9,0,0,1-2.24-5.69,5.13,5.13,0,0,1,3.66-2.61,9.79,9.79,0,0,1,2.17-.22c4,0,8,0,11.95,0Z"/><path class="cls-1" d="M33,151.52q0,13.13,0,26.26a10.31,10.31,0,0,1-.53,3.49,6.08,6.08,0,0,1-3.18,3.58,8.5,8.5,0,0,1-7.48.23,6.55,6.55,0,0,1-4-5.86c-.13-1.42-.17-2.85-.16-4.28q0-24.94,0-49.87c0-1.71.07-1.66-1.62-1.68a13.54,13.54,0,0,1-3.25-.36,3.72,3.72,0,0,1-3.13-3.14,4.39,4.39,0,0,1,1.8-4.32,5.86,5.86,0,0,1,3.14-1.11c.21,0,.43,0,.64,0,6.59-.22,13.19-.1,19.78-.17a8.14,8.14,0,0,1,3.71.78,3.91,3.91,0,0,1,2.43,3.75,4,4,0,0,1-2.8,3.79,11.05,11.05,0,0,1-3.94.65c-1.42,0-1.42,0-1.42,1.4Q33,138.08,33,151.52Z"/></svg>