<svg width="79" height="79" viewBox="0 0 79 79" fill="none" xmlns="http://www.w3.org/2000/svg">
<path d="M30.7179 54.429C30.7179 41.7109 41.0545 31.4009 53.8052 31.4009C54.6358 31.4009 55.4562 31.4448 56.2641 31.5301C55.9831 18.7521 45.4942 8.44373 32.6414 8.44373C19.6124 8.44373 9.0127 19.0364 9.0127 32.0564C9.0127 44.4392 18.6004 54.6263 30.7471 55.5938C30.7277 55.208 30.7179 54.8197 30.7179 54.429Z" fill="#85ACF4"/>
<path d="M32.6416 17.7888C33.4936 17.7888 34.1846 17.098 34.1846 16.2458V15.3782C34.1846 14.526 33.4936 13.8352 32.6416 13.8352C31.7896 13.8352 31.0986 14.526 31.0986 15.3782V16.2458C31.0986 17.098 31.7894 17.7888 32.6416 17.7888Z" fill="#315BA9"/>
<path d="M16.3454 30.9879H15.4773C14.6253 30.9879 13.9343 31.6787 13.9343 32.5309C13.9343 33.3831 14.6253 34.0739 15.4773 34.0739H16.3454C17.1974 34.0739 17.8883 33.3831 17.8883 32.5309C17.8883 31.6787 17.1974 30.9879 16.3454 30.9879Z" fill="#315BA9"/>
<path d="M44.1646 22.5586C44.5593 22.5586 44.954 22.408 45.2552 22.1071L45.8692 21.4936C46.472 20.8912 46.4723 19.9144 45.8699 19.3115C45.2679 18.7085 44.2907 18.7084 43.6879 19.3108L43.0739 19.9242C42.4711 20.5266 42.4708 21.5035 43.0732 22.1063C43.3745 22.4078 43.7696 22.5586 44.1646 22.5586Z" fill="#315BA9"/>
<path d="M20.0278 42.9549L19.4139 43.5684C18.8112 44.1707 18.8109 45.1478 19.4133 45.7504C19.7146 46.0519 20.1096 46.2027 20.5046 46.2027C20.8993 46.2027 21.294 46.0521 21.5953 45.7511L22.2093 45.1376C22.812 44.5352 22.8123 43.5582 22.2099 42.9555C21.6075 42.3528 20.6308 42.3522 20.0278 42.9549Z" fill="#315BA9"/>
<path d="M20.0279 22.1071C20.3291 22.4081 20.7237 22.5585 21.1184 22.5585C21.5136 22.5585 21.9086 22.4076 22.2098 22.1061C22.8122 21.5033 22.8118 20.5264 22.209 19.9241L21.5951 19.3106C20.9925 18.7084 20.0154 18.7087 19.413 19.3114C18.8106 19.9142 18.8109 20.891 19.4138 21.4934L20.0279 22.1071Z" fill="#315BA9"/>
<path d="M32.6416 34.0739H36.5251C37.3771 34.0739 38.0681 33.3831 38.0681 32.5309C38.0681 31.6788 37.3771 30.988 36.5251 30.988H34.1846V23.3804C34.1846 22.5282 33.4936 21.8374 32.6416 21.8374C31.7896 21.8374 31.0986 22.5282 31.0986 23.3804V32.5309C31.0986 33.3831 31.7894 34.0739 32.6416 34.0739Z" fill="#315BA9"/>
<path d="M64.7168 32.4033C64.7181 32.2879 64.7187 32.1721 64.7187 32.0564C64.7187 14.3805 50.3291 0 32.6416 0C14.9541 0 0.564209 14.3805 0.564209 32.0566C0.564209 40.4877 3.81308 48.4491 9.71232 54.4744C15.431 60.3151 23.021 63.7089 31.1545 64.0792C34.9212 72.8443 43.6562 79 53.8054 79C67.3866 79 78.4357 67.9775 78.4357 54.429C78.4357 44.7868 72.8393 36.4241 64.7168 32.4033ZM3.65015 32.0566C3.65015 16.0821 16.6557 3.08594 32.6416 3.08594C48.3155 3.08594 61.1242 15.5798 61.6181 31.1249C59.1621 30.3034 56.5349 29.8581 53.8054 29.8581C40.2242 29.8581 29.1752 40.8806 29.1752 54.4291C29.1752 56.6719 29.4781 58.8453 30.0449 60.911C15.3247 59.5839 3.65015 47.0227 3.65015 32.0566ZM53.8054 75.9141C41.926 75.9141 32.2611 66.2759 32.2611 54.429C32.2611 42.5821 41.926 32.9439 53.8054 32.9439C65.6849 32.9439 75.3497 42.5821 75.3497 54.429C75.3497 66.2759 65.6849 75.9141 53.8054 75.9141Z" fill="#315BA9"/>
<path d="M53.8055 37.7483C44.5861 37.7483 37.0857 45.2312 37.0857 54.429C37.0857 63.6268 44.5861 71.1097 53.8055 71.1097C63.0248 71.1097 70.5252 63.6268 70.5252 54.429C70.5252 45.2312 63.0248 37.7483 53.8055 37.7483ZM53.8055 68.024C46.2876 68.024 40.1716 61.9254 40.1716 54.4292C40.1716 46.933 46.2878 40.8344 53.8055 40.8344C61.3231 40.8344 67.4393 46.933 67.4393 54.4292C67.4393 61.9254 61.3233 68.024 53.8055 68.024Z" fill="#315BA9"/>
<path d="M55.6112 53.1464C55.4551 53.0913 55.3046 53.0379 55.1598 52.9862V49.376C55.438 49.5054 55.6365 49.6693 55.7482 49.8281C56.2388 50.5252 57.2014 50.6926 57.8981 50.2022C58.5952 49.7119 58.7626 48.7494 58.2722 48.0524C57.6583 47.1797 56.5717 46.4437 55.1598 46.1631V46.1012C55.1598 45.249 54.4688 44.5582 53.6168 44.5582C52.7648 44.5582 52.0738 45.249 52.0738 46.1012V46.2712C51.9351 46.3055 51.795 46.3437 51.6535 46.3862C49.9325 46.9032 48.6341 48.5684 48.4957 50.4357C48.3587 52.2865 49.3425 53.8924 51.1271 54.7318C51.3428 54.8333 51.6663 54.9688 52.0738 55.1293V59.5668C51.5742 59.376 51.1348 59.1015 50.8421 58.7389C50.3065 58.0759 49.3354 57.9725 48.6722 58.5079C48.0093 59.0433 47.9058 60.0148 48.4412 60.6776C49.3776 61.8372 50.7338 62.4823 52.0743 62.7794C52.0865 63.6211 52.7725 64.2997 53.6169 64.2997C54.4235 64.2997 55.0852 63.681 55.1539 62.8922C57.5327 62.508 59.2065 60.9555 59.4757 58.831C59.7843 56.3951 58.1951 54.0575 55.6112 53.1464ZM51.5734 50.6636C51.6031 50.2634 51.7975 49.8778 52.0738 49.6196V51.7225C51.7095 51.4497 51.5415 51.0949 51.5734 50.6636ZM56.4142 58.4434C56.3366 59.0566 55.8907 59.5059 55.1598 59.7333V56.3177C56.1318 56.8728 56.5006 57.7614 56.4142 58.4434Z" fill="#315BA9"/>
</svg>
