<svg width="79" height="79" viewBox="0 0 79 79" fill="none" xmlns="http://www.w3.org/2000/svg">
<g clip-path="url(#clip0)">
<path d="M25.2539 53.5329V32.5798C25.2539 29.3306 26.3297 26.2876 28.3652 23.7799C28.4358 23.6929 28.5074 23.6068 28.5801 23.5217C31.0647 20.6076 34.7359 18.9832 38.5586 18.9804L39.5353 18.9796C43.3614 18.9768 47.0379 20.599 49.527 23.5136C49.5998 23.599 49.6717 23.6852 49.7427 23.7725C51.782 26.2816 52.8599 29.3271 52.8599 32.5798V53.5329H25.2539Z" fill="#85ACF4"/>
<path d="M68.934 40.8975H67.8174C66.9654 40.8975 66.2744 41.5884 66.2744 42.4404C66.2744 43.2925 66.9654 43.9834 67.8174 43.9834H68.934C69.786 43.9834 70.477 43.2925 70.477 42.4404C70.477 41.5884 69.786 40.8975 68.934 40.8975Z" fill="#315BA9"/>
<path d="M65.1914 37.6251C65.5871 37.6251 65.9827 37.4739 66.2842 37.1716L67.0737 36.3796C67.6753 35.7761 67.6739 34.7991 67.0705 34.1974C66.4669 33.5959 65.4902 33.5973 64.8883 34.2006L64.0987 34.9926C63.4971 35.5961 63.4985 36.5731 64.102 37.1748C64.4031 37.4749 64.7972 37.6251 65.1914 37.6251Z" fill="#315BA9"/>
<path d="M66.2842 47.7092C65.6825 47.1061 64.7058 47.1042 64.102 47.706C63.4986 48.3076 63.497 49.2846 64.0988 49.8882L64.8883 50.6802C65.1898 50.9825 65.5854 51.1337 65.981 51.1337C66.3751 51.1337 66.7692 50.9835 67.0705 50.6834C67.674 50.0818 67.6755 49.1048 67.0738 48.5012L66.2842 47.7092Z" fill="#315BA9"/>
<path d="M12.726 42.4404C12.726 41.5884 12.0352 40.8975 11.1831 40.8975H10.0664C9.21422 40.8975 8.52344 41.5884 8.52344 42.4404C8.52344 43.2925 9.21422 43.9834 10.0664 43.9834H11.1831C12.0352 43.9834 12.726 43.2925 12.726 42.4404Z" fill="#315BA9"/>
<path d="M14.9013 49.8881C15.5029 49.2847 15.5015 48.3076 14.8979 47.7059C14.2945 47.1043 13.3175 47.1057 12.7159 47.7091L11.9263 48.5011C11.3247 49.1046 11.3261 50.0816 11.9297 50.6834C12.2309 50.9835 12.625 51.1336 13.0191 51.1336C13.4147 51.1336 13.8103 50.9824 14.1118 50.6801L14.9013 49.8881Z" fill="#315BA9"/>
<path d="M12.7159 37.1715C13.0174 37.4738 13.413 37.625 13.8086 37.625C14.2027 37.625 14.5969 37.4749 14.8979 37.1748C15.5015 36.5732 15.5029 35.5961 14.9013 34.9925L14.1118 34.2005C13.5099 33.5971 12.533 33.5955 11.9297 34.1973C11.3261 34.7989 11.3247 35.7759 11.9263 36.3795L12.7159 37.1715Z" fill="#315BA9"/>
<path d="M62.7846 59.8368H60.7773V31.1265C60.7773 26.099 59.0383 21.1907 55.8806 17.3058C53.2401 14.0571 49.7118 11.638 45.7832 10.3487L46.0517 9.45223C46.7264 7.19965 46.3091 4.82718 44.9067 2.94321C43.5144 1.07283 41.3822 0 39.057 0C36.7317 0 34.5996 1.07283 33.2073 2.94337C31.8049 4.82733 31.3876 7.1998 32.0622 9.45238L32.3307 10.3488C28.3975 11.6397 24.8649 14.0635 22.2238 17.3177C19.0723 21.2005 17.3366 26.1046 17.3366 31.1266V59.8368H15.3293C14.4772 59.8368 13.7864 60.5277 13.7864 61.3798V65.1423C13.7864 68.054 16.1553 70.4231 19.067 70.4231H32.0064V71.9496C32.0064 75.8372 35.1693 79.0002 39.057 79.0002C42.9446 79.0002 46.1076 75.8372 46.1076 71.9496V70.4231H59.0469C61.9586 70.4231 64.3276 68.054 64.3276 65.1423V61.3798C64.3276 60.5276 63.6368 59.8368 62.7846 59.8368ZM20.4225 31.1265C20.4225 22.3453 26.5987 14.6326 35.1082 12.7872C35.8791 12.6201 36.3997 11.8984 36.3154 11.1143C36.2548 10.5517 35.8973 10.087 35.4088 9.86945L35.0186 8.56703C34.6265 7.25812 34.8686 5.87995 35.6828 4.78598C36.4868 3.70559 37.7167 3.08594 39.057 3.08594C40.3972 3.08594 41.6271 3.70559 42.4313 4.78613C43.2455 5.87995 43.4878 7.25812 43.0957 8.56703L42.7118 9.84831C42.2048 10.0594 41.8311 10.5338 41.77 11.1106C41.6868 11.8949 42.2085 12.6158 42.9797 12.7818C51.5044 14.6173 57.6917 22.3323 57.6917 31.1268V59.8369H20.4225V31.1265ZM43.0216 71.9494C43.0216 74.1355 41.243 75.9141 39.057 75.9141C36.8709 75.9141 35.0923 74.1355 35.0923 71.9494V70.4229H43.0216V71.9494ZM61.2416 65.1423C61.2416 66.3526 60.257 67.3372 59.0469 67.3372H19.067C17.8569 67.3372 16.8723 66.3526 16.8723 65.1423V62.9227H61.2418V65.1423H61.2416Z" fill="#315BA9"/>
</g>
<defs>
<clipPath id="clip0">
<rect width="79" height="79" fill="white"/>
</clipPath>
</defs>
</svg>
