<svg width="138" height="23" viewBox="0 0 138 23" fill="none" xmlns="http://www.w3.org/2000/svg">
<path d="M131.028 10.223V13.0825H133.038V15.9196C133.043 16.1369 133.034 16.3688 133.003 16.5684L132.987 16.6653C132.983 16.6869 132.979 16.7091 132.975 16.7319L132.958 16.8016C132.955 16.8135 132.952 16.8255 132.948 16.8375L132.925 16.9111C132.744 17.4335 132.2 18.0955 130.977 18.0955C129.675 18.0955 129.153 17.3356 129.01 16.8016L128.993 16.7319L128.98 16.6653C128.944 16.4465 128.929 16.1731 128.929 15.9196V6.95872C128.929 6.67697 128.946 6.37155 128.997 6.12274L129.031 5.97154C129.034 5.96107 129.036 5.95043 129.039 5.93963L129.058 5.87304C129.062 5.86166 129.065 5.85014 129.069 5.83851L129.094 5.76732C129.28 5.27223 129.771 4.61283 130.967 4.61283C131.89 4.61283 132.387 4.98885 132.652 5.37749L132.699 5.45042C132.714 5.47472 132.728 5.49898 132.741 5.52311L132.778 5.59503L132.811 5.66566L132.839 5.73444L132.864 5.80087L132.884 5.86439L132.902 5.92448L132.916 5.98061L132.927 6.03225C132.932 6.05793 132.937 6.08519 132.941 6.11353L132.953 6.2013C132.954 6.2163 132.956 6.23145 132.958 6.24668L132.97 6.38432L132.978 6.51632L132.985 6.6963L132.987 6.78853V7.87663H137.924L137.925 7.19929L137.928 6.95704L137.928 6.76926L137.923 6.55062L137.919 6.43291L137.91 6.24943L137.898 6.06148L137.887 5.93582C137.553 2.62567 135.065 1.35212 132.037 1.13051L131.835 1.11728L131.631 1.10711C131.528 1.10277 131.425 1.09956 131.322 1.09743L131.115 1.0946C131.08 1.09425 131.045 1.09425 131.01 1.09425L130.802 1.09567C130.768 1.09614 130.733 1.09674 130.699 1.09746L130.492 1.10322L130.288 1.11197L130.085 1.12375L129.883 1.13864C129.816 1.14412 129.75 1.15014 129.683 1.15669L129.485 1.17797C129.453 1.18179 129.42 1.18575 129.387 1.18985L129.192 1.21609C128.74 1.28127 128.305 1.37411 127.892 1.49824L127.717 1.55336C125.804 2.18103 124.413 3.51552 124.128 5.93582L124.099 6.20449L124.078 6.4125L124.059 6.63058L124.044 6.84755C124.035 6.98934 124.029 7.12292 124.029 7.23339L124.03 15.5822L124.031 15.6858L124.035 15.8433L124.04 15.9537L124.047 16.0717L124.056 16.1999L124.067 16.3412L124.089 16.5836L124.107 16.7695C124.384 19.8455 126.716 21.2138 129.569 21.5367L129.768 21.5575C130.103 21.5895 130.444 21.6075 130.789 21.6126L130.997 21.6141L131.205 21.6126C131.553 21.6075 131.895 21.5895 132.231 21.5575L132.431 21.5367C135.293 21.2138 137.61 19.8455 137.892 16.7695L137.914 16.4982L137.931 16.2687L137.946 16.0116L137.956 15.7901L137.964 15.4765V10.223H131.028ZM96.9815 1.62168H92.0229V16.1263C92.0307 16.379 92.0229 16.663 91.9793 16.8712L91.9647 16.9343L91.9466 17.0015C91.94 17.0245 91.9327 17.0481 91.9247 17.0722L91.8988 17.1458C91.7117 17.6444 91.2352 18.2952 90.0951 18.2952C89.026 18.2952 88.5379 17.7079 88.3335 17.2216L88.3035 17.1458C88.2989 17.1333 88.2945 17.1209 88.2902 17.1087L88.2668 17.0365L88.2475 16.9674C88.2446 16.9562 88.2419 16.9452 88.2393 16.9343L88.2256 16.8712C88.176 16.663 88.1697 16.379 88.176 16.1263V1.62168H83.2188V15.6761L83.218 15.7891L83.2197 15.9867L83.2266 16.2774L83.2402 16.6307L83.2497 16.8086L83.2561 16.903L83.2624 16.9724C83.5053 19.5727 85.0308 20.9262 87.1851 21.4925L87.3687 21.5385C87.7695 21.6341 88.1908 21.7038 88.6286 21.7504L88.8318 21.7702L89.0372 21.7869L89.2448 21.8003C89.3492 21.8063 89.4543 21.8111 89.5601 21.8147L89.7727 21.8206L89.9872 21.8235C90.0231 21.8238 90.0591 21.8238 90.0951 21.8238L90.3109 21.8224C90.3467 21.8219 90.3825 21.8213 90.4181 21.8206L90.6311 21.8147C90.7372 21.8111 90.8425 21.8063 90.947 21.8003L91.1549 21.7869L91.3607 21.7702L91.5642 21.7504C94.4644 21.4424 96.6398 20.122 96.9394 16.9724L96.9434 16.9411L96.9515 16.8586L96.9635 16.694L96.9743 16.4949L96.9801 16.3509L96.9862 16.1301L96.9879 15.9867L96.9873 15.8518L96.9842 15.7303C96.9834 15.7115 96.9825 15.6934 96.9815 15.6761V1.62168ZM51.4207 1.62168L48.9472 16.9478L46.4752 1.62168H38.4765L38.0523 21.2282H42.9525L43.0852 3.07786L46.4568 21.2282H51.4285L54.8031 3.07786L54.9363 21.2282H59.8488L59.4103 1.62168H51.4207ZM21.8061 1.62168L18.1742 21.2282H23.4704L26.2073 3.07786L28.8785 21.2282H34.138L30.5212 1.62168H21.8061ZM114.311 17.4072L109.694 1.62168H102.418V21.0237H107.231L106.952 4.73317L111.91 21.0237H118.888V1.62168H114.044L114.311 17.4072ZM69.7905 6.72433C69.7034 6.33713 69.7286 5.92575 69.7737 5.71075C69.7864 5.65369 69.8015 5.59616 69.8193 5.53872L69.848 5.4527C70.0437 4.90915 70.5013 4.39858 71.5506 4.39858C72.683 4.39858 73.3469 5.10451 73.3469 6.16392V7.36279H78.1807V5.99624C78.1807 2.91235 76.1623 1.72605 74.0057 1.31026L73.8281 1.2778L73.6502 1.24867L73.4721 1.22273L73.2941 1.19984L73.1164 1.17987L72.9393 1.16267C72.8803 1.15738 72.8215 1.15254 72.7629 1.14811L72.5875 1.13604L72.4133 1.12633L72.2406 1.11885L72.0696 1.11344L71.9005 1.10997L71.651 1.1081L71.541 1.10848L71.3224 1.1116C71.2861 1.11239 71.2498 1.1133 71.2137 1.11435L70.9979 1.12225C70.9263 1.12542 70.855 1.12913 70.784 1.13339L70.5723 1.14783C67.6234 1.37341 65.3222 2.58471 64.8619 5.42526C64.7257 6.2903 64.6919 7.05816 64.9087 8.03801C65.2499 9.64816 66.5912 10.7939 68.1309 11.755L68.3693 11.9014C68.4092 11.9256 68.4493 11.9496 68.4894 11.9736L68.7312 12.1161L68.9746 12.2562L69.2187 12.3942L69.5852 12.5978L70.5481 13.1254L70.7821 13.2552L71.012 13.3845L71.2373 13.5136L71.4573 13.6427C72.5067 14.2672 73.3475 14.9006 73.65 15.6577C73.8174 16.1076 73.7808 16.6747 73.6999 17.0364L73.686 17.0948C73.666 17.1818 73.6409 17.2688 73.6092 17.3543L73.5754 17.4393C73.3527 17.9596 72.8659 18.4032 71.7963 18.4032C70.5763 18.4032 69.8419 17.7018 69.8419 16.6446L69.8404 14.763H64.6375V16.2587C64.6375 19.7693 66.8648 21.2942 69.6543 21.7469L69.8619 21.7785C70.001 21.7983 70.1413 21.8155 70.2827 21.8303L70.4956 21.8506C70.7449 21.8722 70.9971 21.8864 71.2513 21.894L71.4695 21.8988C71.506 21.8993 71.5424 21.8997 71.5789 21.9L71.6885 21.9004C71.7615 21.9004 71.8342 21.8998 71.9066 21.8988L72.123 21.8941C72.1589 21.893 72.1947 21.8918 72.2305 21.8905L72.4441 21.8809C72.515 21.8772 72.5856 21.8729 72.6558 21.8681L72.8655 21.8519C73.0046 21.84 73.1423 21.8259 73.2784 21.8095L73.4814 21.7831L73.682 21.7531C73.7484 21.7426 73.8144 21.7314 73.88 21.7197L74.0754 21.6826C76.4367 21.2095 78.1936 19.9266 78.5465 17.4601C78.595 17.0922 78.6249 16.7525 78.641 16.4419L78.6497 16.2392C78.6509 16.2061 78.6519 16.1734 78.6527 16.1411L78.6559 15.9515V15.7707L78.6529 15.5987L78.6473 15.4358L78.6394 15.2818C78.6379 15.2569 78.6363 15.2323 78.6347 15.2082L78.624 15.0679L78.6117 14.9367L78.5984 14.8148L78.5768 14.6495L78.5545 14.5053L78.5255 14.3464L78.512 14.2814C78.1715 12.574 76.6767 11.368 75.0161 10.3754L74.7779 10.235L74.538 10.0973L74.2972 9.96214L73.9355 9.76375L73.4558 9.50634L72.6377 9.07122L72.3011 8.8891C72.2643 8.86897 72.2277 8.84887 72.1913 8.82879L71.9759 8.70867L71.7666 8.58901C70.7363 7.99162 69.9575 7.40506 69.7905 6.72433ZM6.02684 6.67624C5.93786 6.30569 5.95177 5.91588 5.99742 5.68937L6.01631 5.60456L6.03776 5.52064C6.20105 4.9319 6.64752 4.32507 7.80148 4.32507C8.94825 4.32507 9.62346 5.0378 9.62346 6.10576V7.31924H14.5139V5.94186C14.5139 2.99898 12.6831 1.76306 10.6374 1.2796L10.459 1.23943C10.3099 1.2075 10.16 1.17938 10.0098 1.1547L9.82946 1.12671L9.64911 1.10188L9.46897 1.08009L9.28929 1.06118C9.2295 1.05534 9.16982 1.04996 9.1103 1.04501L8.93222 1.03146L8.75531 1.02037L8.57979 1.01161L8.40591 1.00504L8.23389 1.00052L7.97988 0.99707H7.8964C7.82308 0.99707 7.75004 0.997583 7.67731 0.998616L7.46001 1.00329C7.31576 1.00745 7.17276 1.01373 7.03115 1.0222L6.81978 1.03654C6.78473 1.0392 6.74977 1.04201 6.7149 1.04495L6.50681 1.06429C6.43783 1.07131 6.36924 1.07888 6.30104 1.08704L6.09766 1.11323C5.92921 1.1365 5.76336 1.16342 5.60036 1.19411L5.40614 1.23276L5.21475 1.27509L5.02628 1.32113C4.96395 1.3371 4.90213 1.3537 4.84083 1.37094L4.65848 1.42458C2.76056 2.00799 1.39282 3.23159 1.04755 5.35476C0.905056 6.23365 0.880635 7.0068 1.08657 7.99748C1.44914 9.70944 2.92785 10.9017 4.58219 11.9034L4.82543 12.0487C4.86614 12.0727 4.90693 12.0966 4.94779 12.1204L5.19356 12.262L5.56365 12.4705L6.05633 12.7423L6.78303 13.1406L7.13605 13.3371L7.47924 13.5329L7.70148 13.6634C7.73803 13.6852 7.77434 13.707 7.81038 13.7288L8.02336 13.8598C8.9316 14.4287 9.64294 15.0146 9.91752 15.7015C10.0974 16.1483 10.0553 16.7152 9.97032 17.0887L9.95578 17.1492C9.9348 17.2351 9.90903 17.3212 9.87716 17.4059L9.84322 17.4901C9.61476 18.0196 9.12446 18.4737 8.04091 18.4737C6.8161 18.4737 6.08348 17.7602 6.08348 16.6884L6.07668 14.8018H0.81543V16.301C0.81543 20.5093 3.98832 21.8925 7.50217 21.9964L7.7222 22.0012L7.94297 22.0028L8.16127 22.0013C8.27 21.9997 8.37809 21.997 8.48549 21.9931L8.69933 21.9836C8.80578 21.9781 8.91149 21.9714 9.01642 21.9634L9.22522 21.9457L9.43184 21.9248C9.50034 21.9172 9.56845 21.9091 9.63618 21.9004L9.83814 21.8726C9.90506 21.8627 9.97156 21.8523 10.0376 21.8413L10.2346 21.8064C12.6798 21.3485 14.5022 20.0514 14.8691 17.5145C14.9197 17.152 14.9512 16.8167 14.9689 16.5095L14.9787 16.3088L14.9846 16.1165C14.986 16.0537 14.9868 15.9924 14.9871 15.9326L14.9865 15.7572L14.983 15.5903L14.9771 15.432L14.969 15.2824L14.9591 15.1416L14.9477 15.0095L14.9286 14.828L14.908 14.6666L14.8802 14.483L14.8485 14.305C14.5092 12.6179 13.059 11.4176 11.4275 10.4304L11.1875 10.2874C11.1473 10.2638 11.1071 10.2403 11.0668 10.217L10.8241 10.0782L10.5806 9.94199L10.3366 9.80816L10.093 9.6765L9.01822 9.10598L8.67451 8.92177L8.45131 8.80006L8.2336 8.67902L8.02205 8.55844C7.98734 8.53837 7.95291 8.51832 7.91878 8.49827L7.71766 8.37803C6.82963 7.8371 6.17754 7.2959 6.02684 6.67624Z" fill="#1428A0"/>
</svg>
