<svg width="79" height="79" viewBox="0 0 79 79" fill="none" xmlns="http://www.w3.org/2000/svg">
<g clip-path="url(#clip0)">
<path d="M77.4575 0H31.803C30.951 0 30.2601 0.690784 30.2601 1.54296V7.71481H24.0882C23.2362 7.71481 22.5453 8.4056 22.5453 9.25778V23.7635C15.4749 30.9875 14.3227 43.7083 20.1349 52.1182L1.68364 69.4267C0.622391 70.4222 0.0249559 71.7885 0.00119423 73.2738C-0.0230303 74.7948 0.577182 76.2814 1.64831 77.3524C2.71851 78.4234 4.20762 79.0238 5.72682 78.9992C7.21238 78.9756 8.57868 78.3782 9.5742 77.3171L22.5454 63.4895V69.7422C22.5454 70.5944 23.2364 71.2852 24.0884 71.2852H69.7428C70.5948 71.2852 71.2858 70.5944 71.2858 69.7422V63.5704H77.4576C78.3096 63.5704 79.0006 62.8796 79.0006 62.0274V1.54296C79.0004 0.690784 78.3095 0 77.4575 0ZM39.5179 19.4244C50.5783 19.4244 59.5764 28.4226 59.5764 39.4829C58.568 66.0567 20.4637 66.0494 19.4593 39.4826C19.4593 28.4226 28.4574 19.4244 39.5179 19.4244ZM24.4041 56.9975L22.2665 59.2761L19.7246 56.7343L22.0032 54.5966C22.7442 55.4541 23.5468 56.2566 24.4041 56.9975ZM7.32348 75.2057C6.90472 75.6521 6.32024 75.9034 5.6776 75.9136C4.98604 75.9252 4.31377 75.6536 3.83036 75.1702C3.34665 74.6866 3.0757 74.0133 3.08681 73.3228C3.09699 72.6803 3.3485 72.096 3.79503 71.6772L17.4729 58.8464L20.1543 61.5278L7.32348 75.2057ZM68.1997 68.1993H25.6312V60.1998L26.8825 58.8659C41.8948 68.9266 62.839 57.6813 62.6621 39.4826C62.8379 20.5786 40.4771 9.53181 25.6312 20.9784V10.8007H68.1997V68.1993ZM75.9145 60.4844H71.2856V9.25778C71.2856 8.4056 70.5947 7.71481 69.7426 7.71481H33.346V3.08593H75.9145V60.4844Z" fill="#315BA9"/>
<path fill-rule="evenodd" clip-rule="evenodd" d="M39.5176 54.9127C48.016 54.9127 54.9473 47.9814 54.9473 39.483C54.1581 19.0441 24.874 19.0498 24.0879 39.4832C24.0879 47.9812 31.0192 54.9127 39.5176 54.9127Z" fill="#85ACF4"/>
</g>
<defs>
<clipPath id="clip0">
<rect width="79" height="79" fill="white"/>
</clipPath>
</defs>
</svg>
