<?xml version="1.0" encoding="iso-8859-1"?>
<!-- Uploaded to: SVG Repo, www.svgrepo.com, Generator: SVG Repo Mixer Tools -->
<svg fill="#2F56A1" height="800px" width="800px" version="1.1" id="Layer_1" xmlns="http://www.w3.org/2000/svg" xmlns:xlink="http://www.w3.org/1999/xlink" 
	 viewBox="0 0 297.001 297.001" xml:space="preserve">
<g>
	<g>
		<g>
			<path d="M130.298,73.916c-37.869,0-68.678,30.809-68.678,68.678c0,37.869,30.809,68.678,68.678,68.678
				s68.678-30.809,68.678-68.678c0-16.484-5.841-31.626-15.557-43.476l-15.428,15.428c5.845,7.835,9.31,17.544,9.31,28.049
				c0,25.918-21.085,47.003-47.003,47.003c-25.918,0-47.003-21.085-47.003-47.003c0-25.918,21.085-47.003,47.003-47.003
				c10.504,0,20.214,3.465,28.049,9.31l15.428-15.428C161.924,79.757,146.781,73.916,130.298,73.916z"/>
			<path d="M130.298,127.738c1.572,0,3.085,0.249,4.508,0.704l13.752-13.752c-5.25-3.447-11.523-5.461-18.26-5.461
				c-18.398,0-33.365,14.967-33.365,33.365s14.967,33.365,33.365,33.365s33.365-14.967,33.365-33.365
				c0-6.737-2.013-13.009-5.461-18.26l-13.752,13.752c0.454,1.423,0.704,2.936,0.704,4.508c0,8.192-6.664,14.856-14.856,14.856
				s-14.856-6.664-14.856-14.856S122.106,127.738,130.298,127.738z"/>
			<path d="M235.993,142.594c0-26.692-9.95-51.1-26.329-69.722l-16.577,16.577c12.166,14.352,19.526,32.901,19.526,53.145
				c0,45.39-36.927,82.316-82.316,82.316s-82.316-36.927-82.316-82.316c0-45.389,36.927-82.316,82.316-82.316
				c20.245,0,38.793,7.36,53.145,19.526l16.577-16.577c-18.622-16.379-43.031-26.329-69.722-26.329
				c-58.281,0-105.696,47.415-105.696,105.696S72.016,248.29,130.297,248.29S235.993,200.874,235.993,142.594z"/>
			<path d="M24.961,283.282c-2.194,4.913,0.01,10.674,4.921,12.869c1.291,0.576,2.64,0.85,3.968,0.85
				c3.726,0,7.282-2.15,8.901-5.771l21.903-49.031c-5.608-3.708-10.885-7.876-15.778-12.45L24.961,283.282z"/>
			<path d="M211.72,229.748c-4.894,4.575-10.171,8.742-15.778,12.45l21.903,49.031c1.618,3.622,5.174,5.771,8.901,5.771
				c1.327,0,2.677-0.274,3.968-0.85c4.912-2.195,7.115-7.956,4.921-12.869L211.72,229.748z"/>
			<path d="M272.37,28.457c-1.055-2.549-3.542-4.21-6.3-4.21h-17.426V6.821c0-2.758-1.661-5.245-4.21-6.3
				c-2.55-1.059-5.482-0.473-7.432,1.477l-30.307,30.307c-1.279,1.28-1.997,3.014-1.997,4.822v24.245
				c0,3.766,3.053,6.819,6.819,6.819h24.245c1.808,0,3.543-0.718,4.822-1.997l30.307-30.307
				C272.843,33.938,273.426,31.004,272.37,28.457z"/>
		</g>
	</g>
</g>
</svg>