<svg width="75" height="49" viewBox="0 0 75 49" fill="none" xmlns="http://www.w3.org/2000/svg">
<path d="M58.9594 1.6154C62.0613 0.21718 65.7873 0.168619 68.9959 1.30059C70.8479 1.97039 72.6133 3.00859 73.762 4.51733C74.7045 5.81675 74.5167 7.42763 74.4891 8.90455C73.5282 7.97519 72.5672 7.0224 71.3799 6.32245C69.0217 4.84218 66.0542 4.27787 63.2247 4.57091C59.7694 4.80534 56.3877 6.3258 54.3149 8.88613C54.3443 7.63192 54.0884 6.30236 54.6793 5.12015C55.4654 3.4525 57.2327 2.38919 58.9594 1.6154Z" fill="#396BB4"/>
<path d="M20.2325 4.13724C21.8801 3.76215 23.732 4.71662 24.1665 6.22201C24.7997 8.01039 23.1245 10.0449 21.0683 10.0248C19.2826 10.1219 17.7031 8.63833 17.7307 7.03414C17.7031 5.68951 18.8003 4.442 20.2325 4.13724Z" fill="#396BB4"/>
<path d="M4.01264 7.08265C4.74163 6.74105 5.5866 6.84152 6.37634 6.83315C6.36897 8.38207 6.36529 9.931 6.37634 11.4799C8.97383 11.4732 11.5695 11.4766 14.167 11.4782C14.1265 12.3356 14.2351 13.2013 14.0915 14.052C13.7859 15.2576 12.3997 15.9726 11.1074 15.9911C9.52978 16.0112 7.95214 16.0045 6.3745 15.9927C6.36529 18.7574 6.37266 21.522 6.37266 24.2866C6.37081 25.365 6.68745 26.5773 7.72755 27.2153C8.77869 27.8516 10.1097 27.7411 11.3081 27.6725C12.3058 27.6189 13.2631 27.3392 14.1614 26.9524C14.0915 28.1631 14.4136 29.4893 13.6626 30.5794C12.9428 31.6528 11.5106 32.0731 10.2054 32.197C8.41052 32.3276 6.54754 32.1601 4.8889 31.492C3.27076 30.8624 2.00055 29.573 1.40963 28.0727C0.91995 26.8637 0.770838 25.5642 0.791088 24.2832C0.791088 20.2627 0.792928 16.2422 0.791088 12.2217C0.809496 11.1986 0.936517 10.1169 1.58819 9.2478C2.22514 8.3938 2.98358 7.55989 4.01264 7.08265Z" fill="#396BB4"/>
<path d="M63.613 11.0446C65.9141 10.919 68.2889 11.3896 70.2181 12.5634C72.9132 14.1927 74.546 17.0126 74.9087 19.9011C75.2032 22.5385 74.8075 25.3048 73.3752 27.6441C72.0921 29.7841 69.8536 31.4452 67.2506 32.0631C64.0861 32.8334 60.4651 32.5621 57.7498 30.7905C55.2204 29.1947 53.7201 26.5087 53.3169 23.7743C52.9764 21.1503 53.3777 18.3991 54.7344 16.043C55.6493 14.4456 57.0631 13.0708 58.8194 12.2235C60.2847 11.4917 61.9525 11.1367 63.613 11.0446ZM62.5784 15.7199C61.4573 15.9694 60.5111 16.6978 59.9552 17.6054C59.0605 19.0136 58.9519 20.6898 59.0366 22.2772C59.1194 23.7759 59.4821 25.3567 60.5774 26.5288C61.7629 27.7797 63.7603 28.1096 65.4778 27.8115C66.818 27.5637 67.917 26.6444 68.4748 25.5308C69.2075 24.1025 69.2811 22.4765 69.1541 20.9293C69.005 19.4122 68.5779 17.7879 67.315 16.7061C66.0835 15.6179 64.2003 15.4067 62.5784 15.7199Z" fill="#396BB4"/>
<path d="M38.3451 11.8887C40.6867 11.2189 43.2161 10.9543 45.6424 11.3595C47.3507 11.6626 49.1088 12.4798 49.9022 13.9584C50.5207 15.0083 50.2722 16.2341 50.3182 17.3727C50.09 17.3744 49.8617 17.3761 49.6334 17.3777C47.7355 16.0951 45.3055 15.663 42.9841 15.6396C40.799 15.6044 38.531 16.3931 37.1541 17.9755C36.0569 19.1544 35.6169 20.7485 35.7071 22.2707C35.7642 23.9586 36.2354 25.7704 37.6143 26.9844C39.0888 28.3542 41.3292 28.7242 43.356 28.6455C44.1218 28.602 45.184 28.4111 45.2889 27.5705C45.3865 25.7285 45.357 23.8631 44.895 22.058C45.9737 22.0848 47.0543 22.0279 48.1313 22.0898C49.5119 22.2087 50.8318 23.2871 50.738 24.6133C50.6478 26.4469 51.0435 28.3994 50.1691 30.1241C49.3849 31.6814 47.5495 32.5086 45.786 32.8318C42.3987 33.4296 38.7225 33.1533 35.6869 31.581C33.0931 30.2916 31.0902 28.041 30.352 25.4288C29.5254 22.5352 29.8733 19.3135 31.5541 16.7197C33.0268 14.3936 35.5543 12.7008 38.3451 11.8887Z" fill="#396BB4"/>
<path d="M18.2316 11.9288C19.5386 11.9707 20.958 11.7865 22.1325 12.4312C23.283 13.0139 23.8077 14.2547 23.8095 15.4051C23.8298 18.1396 23.8113 20.8741 23.8205 23.6102C23.8316 24.4977 23.7561 25.3953 23.9292 26.2744C24.0286 26.827 24.3618 27.3812 24.9343 27.6341C25.967 28.1331 27.1802 28.0159 28.3086 28.0242C28.2939 29.0943 28.4338 30.2681 27.7729 31.2142C27.2483 31.9577 26.21 32.1687 25.3025 32.2005C23.4561 32.2624 21.4532 31.894 20.0946 30.675C18.6716 29.4191 18.2279 27.5353 18.2316 25.7904C18.2298 21.1705 18.2279 16.5488 18.2316 11.9288Z" fill="#396BB4"/>
<path d="M35.952 36.0132C37.6198 37.9472 39.4993 39.7792 41.8189 41.0736C44.617 42.6844 47.9637 43.443 51.2645 43.3358C55.631 43.2789 60.0123 41.8756 63.2965 39.2249C64.5078 38.3274 65.4209 37.1669 66.3652 36.0483C66.3873 37.6894 66.5677 39.389 65.9271 40.9614C65.1429 43.2839 63.0756 45.0003 60.9089 46.2997C57.9101 48.0881 54.3203 49.128 50.7196 48.9873C46.086 48.8332 41.4691 47.0449 38.3341 43.9085C37.4541 43.0378 36.703 42.0364 36.3459 40.8877C35.7403 39.3237 35.8967 37.6391 35.952 36.0132Z" fill="#396BB4"/>
</svg>
